<?xml version="1.0" encoding="UTF-8"?>
<svg version="1.1" xmlns="http://www.w3.org/2000/svg" width="8000" height="8000">
<path d="M0 0 C2640 0 5280 0 8000 0 C8000 2640 8000 5280 8000 8000 C5360 8000 2720 8000 0 8000 C0 5360 0 2720 0 0 Z " fill="#4C4C4C" transform="translate(0,0)"/>
<path d="M0 0 C0 236.28 0 472.56 0 716 C-12.36217533 717.12383412 -12.36217533 717.12383412 -16.70922852 717.30957031 C-17.69930405 717.35364014 -18.68937958 717.39770996 -19.7094574 717.44311523 C-20.75537552 717.48766846 -21.80129364 717.53222168 -22.87890625 717.578125 C-25.2332667 717.68453724 -27.58759475 717.79166788 -29.94189453 717.89941406 C-31.17957581 717.95585083 -32.41725708 718.0122876 -33.69244385 718.07043457 C-108.10254472 721.52296374 -182.26154043 728.38334077 -256 739 C-257.12398193 739.16179749 -258.24796387 739.32359497 -259.40600586 739.49029541 C-364.19120558 754.64898432 -467.8264793 777.05959851 -898.53955078 930.375 C-901.51213753 931.77090358 -904.4902481 933.15395878 -907.47218323 934.52975464 C-926.39862046 943.26578208 -945.0983862 952.44348534 -963.75 961.75 C-964.88991394 962.31736877 -966.02982788 962.88473755 -967.20428467 963.46929932 C-980.71836578 970.20210887 -994.08793221 977.13346848 -1007.31005859 984.42333984 C-1012.63620889 987.35984366 -1018.02372961 990.16654339 -1023.4375 992.9375 C-1034.160594 998.48408666 -1044.66416172 1004.3788145 -1055.14257812 1010.37207031 C-1057.95825749 1011.97621847 -1060.78197414 1013.56505356 -1063.609375 1015.1484375 C-1077.41464875 1022.88528782 -1091.05566252 1030.88010748 -1104.64208984 1038.99462891 C-1107.90137942 1040.94110299 -1111.163452 1042.88284492 -1114.42578125 1044.82421875 C-1128.73874937 1053.35844543 -1142.91527166 1062.09446098 -1157 1071 C-1157.97308105 1071.61391602 -1158.94616211 1072.22783203 -1159.94873047 1072.86035156 C-1176.49904254 1083.31750031 -1192.79955102 1094.13228878 -1209.06214905 1105.02886963 C-1213.33581911 1107.89106087 -1217.61856346 1110.73898176 -1221.91015625 1113.57421875 C-1230.92693791 1119.53762174 -1239.89501909 1125.50910488 -1248.55078125 1131.98876953 C-1253.47568401 1135.66450273 -1258.53511352 1139.11992949 -1263.625 1142.5625 C-1270.24183193 1147.04554816 -1276.63793674 1151.69803697 -1282.92578125 1156.62890625 C-1286.06029256 1159.04650265 -1289.26319633 1161.34818585 -1292.5 1163.625 C-1301.32639202 1169.85524653 -1309.8673217 1176.4622799 -1318.43847656 1183.03662109 C-1320.78693527 1184.83668828 -1323.13861539 1186.63240779 -1325.4921875 1188.42578125 C-1340.60076288 1199.94163344 -1355.58741768 1211.5847683 -1370.29443359 1223.61035156 C-1372.62118176 1225.50612176 -1374.96530307 1227.37963521 -1377.3125 1229.25 C-1385.36884017 1235.6816449 -1393.31088688 1242.23988891 -1401.16552734 1248.91552734 C-1404.55896016 1251.79507741 -1407.98240983 1254.63182472 -1411.4375 1257.4375 C-1417.44735831 1262.33248605 -1423.31751283 1267.38317358 -1429.18847656 1272.44287109 C-1430.99362396 1273.99451936 -1432.80438559 1275.53933585 -1434.6171875 1277.08203125 C-1441.03035135 1282.54435297 -1447.34930412 1288.0793291 -1453.55859375 1293.7734375 C-1455.66154833 1295.69133207 -1457.78669156 1297.57376045 -1459.9375 1299.4375 C-1463.88745261 1302.86836233 -1467.731871 1306.41130271 -1471.58007812 1309.95507812 C-1474.3345576 1312.48725408 -1477.10733787 1314.99027735 -1479.9375 1317.4375 C-1484.49165707 1321.39193269 -1488.91117783 1325.49066619 -1493.32885742 1329.59591675 C-1495.58649229 1331.69240471 -1497.85070512 1333.78114282 -1500.1237793 1335.86087036 C-1511.7676228 1346.56372094 -1522.91498837 1357.76725721 -1534.08908463 1368.95475912 C-1536.91228387 1371.78053014 -1539.7379675 1374.60381533 -1542.56323242 1377.42752075 C-1547.29508877 1382.15757132 -1552.0248631 1386.88969603 -1556.75341797 1391.62304688 C-1562.20087686 1397.07596744 -1567.65195822 1402.5252469 -1573.10489082 1407.97269332 C-1577.81879009 1412.68204214 -1582.53072255 1417.39335216 -1587.24104118 1422.10628235 C-1590.04072776 1424.90751826 -1592.84106264 1427.7080971 -1595.64318848 1430.50689316 C-1598.27216574 1433.13296268 -1600.89864836 1435.76150289 -1603.52329826 1438.3918972 C-1604.93360179 1439.80413236 -1606.3463379 1441.21393698 -1607.75917053 1442.62364197 C-1612.71061531 1447.5914244 -1617.44118444 1452.67100466 -1622 1458 C-1623.20631121 1459.31895832 -1624.41984372 1460.63145982 -1625.6484375 1461.9296875 C-1626.25671387 1462.57470215 -1626.86499023 1463.2197168 -1627.49169922 1463.88427734 C-1628.11318848 1464.54121582 -1628.73467773 1465.1981543 -1629.375 1465.875 C-1634.99839063 1471.84631462 -1640.54268131 1477.87613857 -1646 1484 C-1647.54110287 1485.70884196 -1649.08277686 1487.41716901 -1650.625 1489.125 C-1656.91465033 1496.11831172 -1663.06039991 1503.22790673 -1669.17504883 1510.37402344 C-1672.93349649 1514.76380683 -1676.71172762 1519.13594198 -1680.5 1523.5 C-1693.17642045 1538.09854518 -1693.17642045 1538.09854518 -1705.53125 1552.96875 C-1707.43841775 1555.3104623 -1709.35524798 1557.64259687 -1711.28125 1559.96875 C-1717.23999766 1567.16811761 -1723.14766991 1574.39463725 -1728.890625 1581.76757812 C-1732.32418939 1586.16714532 -1735.83947828 1590.49463442 -1739.375 1594.8125 C-1745.54525201 1602.36518816 -1751.48044851 1610.08238848 -1757.37060547 1617.85449219 C-1759.54634932 1620.71940633 -1761.73616706 1623.57341588 -1763.92578125 1626.42773438 C-1774.61639711 1640.37146126 -1785.10242587 1654.44394019 -1795.35449219 1668.71337891 C-1796.99501669 1670.99307513 -1798.64101689 1673.26870498 -1800.2890625 1675.54296875 C-1807.06125997 1684.88981238 -1813.77640724 1694.273756 -1820.40136719 1703.72558594 C-1822.02334317 1706.03321089 -1823.65591959 1708.33308065 -1825.2890625 1710.6328125 C-1834.74870082 1724.02573725 -1843.79550079 1737.68159098 -1852.8125 1751.375 C-1853.43188446 1752.31558258 -1854.05126892 1753.25616516 -1854.68942261 1754.22525024 C-1864.96326787 1769.83695753 -1875.23591291 1785.45310159 -1885.125 1801.3125 C-1885.74842285 1802.31192627 -1886.3718457 1803.31135254 -1887.01416016 1804.34106445 C-1928.03578796 1870.27557923 -1965.74184256 1938.17838676 -2027.0735321 2064.49182129 C-2029.10125655 2069.0107371 -2031.14529654 2073.52188466 -2033.20063782 2078.02830505 C-2044.65299344 2103.14054866 -2055.52694241 2128.46409597 -2066 2154 C-2066.28834717 2154.70259949 -2066.57669434 2155.40519897 -2066.8737793 2156.12908936 C-2081.58729343 2192.02204307 -2095.19415572 2228.38568272 -2108 2265 C-2108.3209967 2265.91702698 -2108.64199341 2266.83405396 -2108.97271729 2267.77886963 C-2132.09969026 2333.9393445 -2151.89766929 2401.04343683 -2169 2469 C-2169.25352234 2470.00724121 -2169.50704468 2471.01448242 -2169.76824951 2472.05224609 C-2194.15550245 2569.20098434 -2211.77056156 2668.36767917 -2236.5625 2976.1875 C-2236.58334656 2977.13423584 -2236.60419312 2978.08097168 -2236.62567139 2979.05639648 C-2238.78589837 3080.52248689 -2234.30225525 3182.09386313 -2006.52992249 4036.76922607 C-2004.71530314 4040.50969333 -2002.92339522 4044.26009825 -2001.1484375 4048.01953125 C-1992.96669365 4065.31824033 -1984.20846516 4082.30737577 -1975.4342041 4099.31079102 C-1971.89636397 4106.17769277 -1968.43175189 4113.07949973 -1965 4120 C-1971.76614191 4124.70298121 -1978.78572497 4128.77769821 -1986 4132.75 C-1993.18892621 4136.74175824 -2000.36636563 4140.73998644 -2007.4375 4144.9375 C-2014.40769835 4149.07317969 -2021.41501012 4153.14121067 -2028.4375 4157.1875 C-2030.09833618 4158.14450806 -2030.09833618 4158.14450806 -2031.79272461 4159.12084961 C-2034.06337068 4160.42889477 -2036.33412358 4161.73675448 -2038.60498047 4163.04443359 C-2044.0716998 4166.19332054 -2049.53574887 4169.34683264 -2055 4172.5 C-2057.16665311 4173.7500235 -2059.33331979 4175.00002347 -2061.5 4176.25 C-2062.5725 4176.86875 -2063.645 4177.4875 -2064.75 4178.125 C-2126.49999992 4213.74999996 -2126.49999992 4213.74999996 -2129.75048828 4215.62524414 C-2131.91557071 4216.87435518 -2134.08060982 4218.12354129 -2136.24560547 4219.37280273 C-2141.68615706 4222.51202309 -2147.12747216 4225.64990563 -2152.5703125 4228.78515625 C-2163.02206199 4234.80747329 -2173.46299548 4240.84669337 -2183.875 4246.9375 C-2193.14499777 4252.35921178 -2202.45831752 4257.70204915 -2211.78845215 4263.01922607 C-2220.9128284 4268.22045129 -2230.00132774 4273.48027878 -2239.06689453 4278.78344727 C-2249.59084625 4284.93766742 -2260.15380137 4291.02369996 -2270.71777344 4297.10888672 C-2276.14659942 4300.23680148 -2281.57319281 4303.36858448 -2287 4306.5 C-2289.16665583 4307.75001879 -2291.3333225 4309.00001878 -2293.5 4310.25 C-2294.5725 4310.86875 -2295.645 4311.4875 -2296.75 4312.125 C-2514.49999999 4437.74999999 -2514.49999999 4437.74999999 -2517.75048828 4439.62524414 C-2519.91557071 4440.87435518 -2522.08060982 4442.12354129 -2524.24560547 4443.37280273 C-2529.68615706 4446.51202309 -2535.12747216 4449.64990563 -2540.5703125 4452.78515625 C-2541.65497803 4453.41035156 -2542.73964355 4454.03554688 -2543.85717773 4454.6796875 C-2546.01745998 4455.9243716 -2548.17841898 4457.16788195 -2550.34008789 4458.41015625 C-2555.87316414 4461.59529169 -2561.38305586 4464.81465262 -2566.86328125 4468.08984375 C-2567.96720215 4468.745896 -2569.07112305 4469.40194824 -2570.20849609 4470.07788086 C-2572.31941822 4471.33444292 -2574.42545628 4472.59925601 -2576.52587891 4473.87329102 C-2577.4647998 4474.43072998 -2578.4037207 4474.98816895 -2579.37109375 4475.5625 C-2580.19536865 4476.05878906 -2581.01964355 4476.55507813 -2581.86889648 4477.06640625 C-2584 4478 -2584 4478 -2587 4477 C-2588.47949219 4474.77636719 -2588.47949219 4474.77636719 -2590.046875 4471.796875 C-2590.63702393 4470.68562256 -2591.22717285 4469.57437012 -2591.83520508 4468.42944336 C-2592.47373029 4467.2030977 -2593.11198804 4465.97661275 -2593.75 4464.75 C-2594.41553415 4463.48732886 -2595.08180563 4462.22504611 -2595.7487793 4460.96313477 C-2597.8474206 4456.98314071 -2599.92563419 4452.99268824 -2602 4449 C-2602.3339679 4448.3578656 -2602.66793579 4447.7157312 -2603.01202393 4447.05413818 C-2606.44665573 4440.44894753 -2609.86540056 4433.83581037 -2613.26953125 4427.21484375 C-2615.630957 4422.62767674 -2618.02344136 4418.05890669 -2620.43896484 4413.50003052 C-2626.9094073 4401.2770757 -2633.13152688 4388.93390066 -2639.3125 4376.5625 C-2639.8624765 4375.46293976 -2640.412453 4374.36337952 -2640.97909546 4373.23049927 C-2648.79645084 4357.58911367 -2656.38165451 4341.88193312 -2663.62890625 4325.96826172 C-2665.95000446 4320.9433486 -2668.3901664 4315.97665589 -2670.8125 4311 C-2677.58763296 4297.01427062 -2683.82189631 4282.7919636 -2690.08978271 4268.57420349 C-2692.61721254 4262.84780507 -2695.19198441 4257.14447844 -2697.78027344 4251.4453125 C-2721.97453821 4198.02980378 -2743.91981744 4143.30839642 -2764.16314697 4088.27410889 C-2765.05515344 4085.8501231 -2765.95009894 4083.42723369 -2766.84521484 4081.00439453 C-2802.44312098 3984.54464386 -2833.35955942 3886.57737376 -2859 3787 C-2859.41575287 3785.38789642 -2859.41575287 3785.38789642 -2859.83990479 3783.7432251 C-2882.25684613 3696.72075815 -2900.66007263 3608.71213893 -2915 3520 C-2915.18137512 3518.88471924 -2915.36275024 3517.76943848 -2915.54962158 3516.62036133 C-2928.45937738 3437.20958379 -2938.03123738 3357.26996313 -2951.6875 3157.6875 C-2951.71831539 3156.96123665 -2951.74913078 3156.2349733 -2951.78087997 3155.48670197 C-2953.54093817 3113.93302903 -2954.20722598 3072.40231919 -2954.1875 3030.8125 C-2954.18738041 3029.68742916 -2954.18726082 3028.56235832 -2954.1871376 3027.40319443 C-2954.18171789 2986.90318707 -2953.63366013 2946.46712276 -2952 2906 C-2951.94908203 2904.71452271 -2951.89816406 2903.42904541 -2951.84570312 2902.10461426 C-2948.71686966 2823.64366938 -2942.4691039 2745.25838143 -2896 2433 C-2895.75721313 2431.77724365 -2895.51442627 2430.5544873 -2895.26428223 2429.29467773 C-2872.75997558 2316.06390423 -2843.15418147 2204.42356614 -2711 1837 C-2710.71958862 1836.34205444 -2710.43917725 1835.68410889 -2710.15026855 1835.00622559 C-2692.73493594 1794.16284605 -2674.2030525 1753.81176605 -2654.85375977 1713.85107422 C-2653.41910359 1710.87856722 -2651.99891503 1707.89935835 -2650.58178711 1704.91845703 C-2644.34571341 1691.80981964 -2637.96830707 1678.77917003 -2631.46557617 1665.80078125 C-2629.93172618 1662.73847266 -2628.40220398 1659.6740292 -2626.87304688 1656.609375 C-2621.10395508 1645.06691171 -2615.21859279 1633.59589528 -2609.16610718 1622.19958496 C-2607.64863119 1619.33722596 -2606.14270732 1616.46887604 -2604.63723755 1613.60018921 C-2597.15061279 1599.33829118 -2589.62155888 1585.11707019 -2581.61962891 1571.13549805 C-2577.82586534 1564.50029764 -2574.17409941 1557.79836353 -2570.5625 1551.0625 C-2564.56417999 1539.90510138 -2558.2164887 1528.97521123 -2551.79150391 1518.05957031 C-2549.38523409 1513.95008907 -2547.01437245 1509.82071438 -2544.64404297 1505.69042969 C-2531.13357584 1482.15606759 -2517.30904598 1458.82330657 -2502.81494141 1435.87988281 C-2500.30738185 1431.90097878 -2497.82113942 1427.90891527 -2495.33398438 1423.91723633 C-2467.42690674 1379.15023139 -2438.26577683 1335.20762576 -2408 1292 C-2407.45504883 1291.22188965 -2406.91009766 1290.4437793 -2406.34863281 1289.64208984 C-2399.20162978 1279.44966692 -2391.94094301 1269.34189522 -2384.63671875 1259.26171875 C-2383.01490936 1257.02060267 -2381.39734868 1254.77648685 -2379.78125 1252.53125 C-2368.66034275 1237.08498229 -2357.39459369 1221.76032435 -2345.83203125 1206.64111328 C-2341.75145218 1201.30520043 -2337.70362243 1195.9470496 -2333.6875 1190.5625 C-2328.68282308 1183.86308222 -2323.55085328 1177.27270133 -2318.35888672 1170.71777344 C-2316.0648785 1167.81790965 -2313.78322745 1164.90835352 -2311.5 1162 C-2310.58074372 1160.83071772 -2309.6614729 1159.66144688 -2308.7421875 1158.4921875 C-2306.93125825 1156.18771898 -2305.12425437 1153.88025413 -2303.3203125 1151.5703125 C-2296.86191724 1143.30891922 -2290.28264407 1135.15212474 -2283.65283203 1127.02783203 C-2282.02457952 1125.03015621 -2280.40021386 1123.02939373 -2278.77734375 1121.02734375 C-2268.37988502 1108.20080855 -2257.97339618 1095.38511141 -2247.18505859 1082.8840332 C-2244.25654923 1079.48541328 -2241.38663872 1076.04902762 -2238.5625 1072.5625 C-2233.944962 1066.87809402 -2229.14579932 1061.36111183 -2224.3359375 1055.83984375 C-2221.64478837 1052.74916609 -2218.97815858 1049.63861189 -2216.3203125 1046.51928711 C-2211.38958318 1040.73350417 -2206.37189502 1035.05304234 -2201.234375 1029.44921875 C-2198.70597628 1026.67770476 -2196.23816 1023.85872997 -2193.77734375 1021.02734375 C-2190.94567053 1017.79736924 -2188.05797493 1014.61809344 -2185.1796875 1011.4296875 C-2183.30854906 1009.3439382 -2181.46075169 1007.24182372 -2179.625 1005.125 C-2176.21317487 1001.20771929 -2172.70280912 997.38327362 -2169.18579102 993.56079102 C-2166.29061297 990.41287108 -2163.41646674 987.24796197 -2160.5625 984.0625 C-2150.86081638 973.26186461 -2140.9182323 962.682295 -2130.97509766 952.10449219 C-2128.97323771 949.97148443 -2126.97644592 947.83382495 -2124.98046875 945.6953125 C-2118.03873033 938.27096197 -2111.04747005 930.92276735 -2103.77905273 923.81591797 C-2101.08832587 921.1684239 -2098.52995919 918.47881553 -2096.09179688 915.59619141 C-2090.80077785 909.52460192 -2085.04474348 903.90081994 -2079.34765625 898.21484375 C-2078.12114646 896.98765878 -2076.89478502 895.76032553 -2075.66856384 894.53285217 C-2073.10919472 891.97201619 -2070.54804507 889.41297829 -2067.9855957 886.85522461 C-2064.71989492 883.59522046 -2061.45870525 880.33074635 -2058.19884586 877.06490231 C-2055.67061373 874.53303715 -2053.13998061 872.00358256 -2050.60864067 869.47482491 C-2049.40596808 868.27281401 -2048.20402291 867.07007481 -2047.0028553 865.86655998 C-2041.34793309 860.20301127 -2035.6995928 854.5870968 -2029.60862732 849.38624573 C-2027.49169509 847.56196473 -2025.52070934 845.61756389 -2023.5625 843.625 C-2022.81226563 842.86703125 -2022.06203125 842.1090625 -2021.2890625 841.328125 C-2020.15597656 840.17570312 -2020.15597656 840.17570312 -2019 839 C-2014.06302482 833.9787761 -2009.08780425 829.11413524 -2003.74609375 824.5234375 C-2001.55755811 822.61397688 -1999.52188197 820.58409373 -1997.5 818.5 C-1994.84959431 815.76804337 -1992.11561232 813.20358946 -1989.2421875 810.7109375 C-1984.92407712 806.96401638 -1980.76995754 803.0614539 -1976.625 799.125 C-1971.27254537 794.06415029 -1965.89482727 789.04513571 -1960.39453125 784.14453125 C-1957.53104459 781.58000568 -1954.70310125 778.97839798 -1951.875 776.375 C-1947.98000005 772.79336271 -1944.04748241 769.264117 -1940.046875 765.80078125 C-1937.55925274 763.61224335 -1935.12646548 761.36760809 -1932.6875 759.125 C-1929.06476095 755.81663086 -1925.38307109 752.63987642 -1921.5625 749.5625 C-1917.56775746 746.34056683 -1913.75447891 742.99342389 -1910 739.5 C-1905.3675162 735.19003562 -1900.57877767 731.14938832 -1895.6484375 727.1796875 C-1893.02724881 725.02242601 -1890.50845719 722.78689 -1888 720.5 C-1883.77986056 716.65808061 -1879.41972816 713.03884779 -1874.984375 709.44921875 C-1871.61238264 706.68188994 -1868.30343931 703.8484263 -1865 701 C-1859.07902354 695.90011056 -1853.06958949 690.92250933 -1847 686 C-1845.27025724 684.5840368 -1843.54110439 683.1673527 -1841.8125 681.75 C-1839.87543621 680.16613303 -1837.93788964 678.58285642 -1836 677 C-1835.40026367 676.50983398 -1834.80052734 676.01966797 -1834.18261719 675.51464844 C-1826.58199742 669.30639183 -1818.9540865 663.13999141 -1811.22167969 657.09643555 C-1806.93355394 653.7429169 -1802.68114617 650.34706891 -1798.4375 646.9375 C-1792.84923167 642.4533077 -1787.2071389 638.05196522 -1781.515625 633.69921875 C-1778.09118095 631.07719234 -1774.69036345 628.42534105 -1771.28979492 625.77246094 C-1763.58661141 619.76341814 -1755.83648539 613.83438977 -1748 608 C-1746.79247966 607.09309876 -1745.58547838 606.18550614 -1744.37890625 605.27734375 C-1728.78789637 593.5448538 -1713.06172069 582.00298043 -1697.22509766 570.60449219 C-1695.00501377 569.00361537 -1692.78901451 567.39724569 -1690.57421875 565.7890625 C-1680.33164151 558.35671492 -1670.00336281 551.05584955 -1659.6171875 543.82568359 C-1657.00085389 542.00059565 -1654.39053911 540.16717301 -1651.78125 538.33203125 C-1637.00891441 527.96653518 -1622.01616723 517.94801225 -1606.98005676 507.97111511 C-1601.64875107 504.43332763 -1596.32768686 500.88051555 -1591.0090332 497.32373047 C-1580.73228116 490.45477442 -1570.41288872 483.66076483 -1560 477 C-1558.77627686 476.21641113 -1558.77627686 476.21641113 -1557.52783203 475.41699219 C-1526.70384411 455.69561958 -1495.57658368 436.49308147 -1464 418 C-1463.05769531 417.44779785 -1462.11539063 416.8955957 -1461.14453125 416.32666016 C-1454.10441711 412.20386968 -1447.0542799 408.09849569 -1440 404 C-1438.95827637 403.39397949 -1437.91655273 402.78795898 -1436.84326172 402.16357422 C-1413.83916462 388.79057271 -1390.60211799 375.87552628 -1367.1484375 363.30859375 C-1363.36994425 361.2816078 -1359.60260477 359.23748784 -1355.8515625 357.16015625 C-1339.87449485 348.31876512 -1323.60781907 340.05537246 -1307.34431458 331.75761414 C-1302.02008736 329.03890054 -1296.70647666 326.30066731 -1291.40234375 323.54296875 C-1278.39437099 316.78192311 -1265.35656742 310.14303004 -1252.09375 303.890625 C-1247.51299797 301.72902515 -1242.95564928 299.52338724 -1238.40625 297.296875 C-1221.27805636 288.91922516 -1204.05194957 280.8183409 -1186.66030884 273.0025177 C-1181.17635382 270.53626073 -1175.70594241 268.04120238 -1170.23828125 265.5390625 C-1086.7626978 227.38918433 -1001.21179587 193.8861911 -914.49578857 163.86468506 C-911.92380972 162.97360329 -909.3527431 162.07992303 -906.78173828 161.18603516 C-855.01410433 143.20956464 -802.74641684 126.85658605 -750 112 C-748.89217163 111.68780518 -747.78434326 111.37561035 -746.64294434 111.05395508 C-663.53645442 87.67599744 -579.46453321 67.93753498 -61.12878418 1.1418457 C-59.04410796 1.04733539 -56.95955039 0.95017027 -54.87512207 0.8503418 C-36.54825504 -0.02144891 -18.38295078 0 0 0 Z " fill="#108CFC" transform="translate(3924,971)"/>
<path d="M0 0 C236.61 0 473.22 0 717 0 C717 10.47310896 716.90519626 20.86308763 716.484375 31.31640625 C716.42814611 32.75681142 716.37202757 34.1972209 716.31600952 35.63763428 C716.13360647 40.27951882 715.94250069 44.92102477 715.75 49.5625 C715.70058384 50.76206644 715.70058384 50.76206644 715.65016937 51.98586655 C712.00395779 140.35956556 704.7167989 228.53493468 629.79241943 654.80493164 C629.00766428 657.96909728 628.22571372 661.13394754 627.44384766 664.29882812 C602.02086399 766.97984358 570.60516655 868.32176629 478 1109 C477.73201599 1109.62988831 477.46403198 1110.25977661 477.18792725 1110.90875244 C464.0108321 1141.84345192 450.23447487 1172.53822377 436 1203 C435.40328625 1204.27911822 434.80660805 1205.55825303 434.20996094 1206.83740234 C420.71589012 1235.74980019 406.81067307 1264.45183988 392.5625 1293 C392.1555188 1293.81664124 391.7485376 1294.63328247 391.32922363 1295.47467041 C385.76320152 1306.63466616 380.04342385 1317.70442177 374.20437622 1328.72387695 C372.67401095 1331.61607924 371.15274968 1334.51300989 369.63200378 1337.41027832 C362.16996897 1351.62192547 354.66846139 1365.79330615 346.68994141 1379.72387695 C342.68614148 1386.7289535 338.85789042 1393.81766853 335.0625 1400.9375 C328.9125269 1412.44626138 322.41234394 1423.71681177 315.78417969 1434.95507812 C313.34202714 1439.12291154 310.9444422 1443.31572007 308.54467773 1447.50805664 C300.95746878 1460.75250881 293.09852969 1473.81277531 285.14224243 1486.83674622 C281.45010085 1492.88775308 277.82068598 1498.97596503 274.1875 1505.0625 C268.41941117 1514.70612951 262.50168613 1524.24126492 256.45605469 1533.71289062 C254.95562422 1536.06970361 253.46470523 1538.43228598 251.9765625 1540.796875 C251.46762451 1541.60527832 250.95868652 1542.41368164 250.43432617 1543.24658203 C249.49646806 1544.73681425 248.55905945 1546.22732955 247.62231445 1547.71826172 C238.44011736 1562.28243638 228.96723571 1576.66180389 219.49414062 1591.03759766 C217.63239178 1593.86377909 215.77319624 1596.69162908 213.9140625 1599.51953125 C206.52955615 1610.73730767 199.04086384 1621.87608039 191.42127991 1632.93553162 C189.54486071 1635.66110881 187.67541443 1638.3914339 185.80645752 1641.12213135 C175.72914407 1655.82845263 165.48025042 1670.40946888 155.01171875 1684.83984375 C152.34000002 1688.52366645 149.69771788 1692.22753295 147.0625 1695.9375 C141.4123264 1703.87525412 135.61123745 1711.70143347 129.81884766 1719.53564453 C128.02434468 1721.9670154 126.23578173 1724.40263417 124.44921875 1726.83984375 C117.27768043 1736.61722348 109.99966047 1746.30239787 102.60449219 1755.91162109 C100.99485521 1758.00669637 99.39097379 1760.10604426 97.7890625 1762.20703125 C87.43919138 1775.78104404 77.01773069 1789.29741917 66.32348633 1802.60253906 C63.51145388 1806.10249762 60.72475781 1809.62005472 57.96313477 1813.15991211 C51.64477518 1821.25815624 45.12480395 1829.18191143 38.57470703 1837.09326172 C36.47508831 1839.63559075 34.39353488 1842.19244908 32.3125 1844.75 C28.62244299 1849.26843716 24.86079982 1853.7222774 21.08300781 1858.16723633 C18.20396139 1861.56011117 15.36770164 1864.9829931 12.5625 1868.4375 C8.60659224 1873.29923279 4.53919901 1878.05588552 0.44604492 1882.80175781 C-2.63714961 1886.38465096 -5.65519302 1890.00934683 -8.625 1893.6875 C-12.42909368 1898.37738445 -16.45351671 1902.82048589 -20.54296875 1907.26171875 C-22.89376133 1909.88160046 -25.11250459 1912.56552219 -27.3125 1915.3125 C-31.94421018 1921.0548334 -36.94823463 1926.400643 -41.9921875 1931.77734375 C-44.84727223 1934.82329521 -47.61364415 1937.93539225 -50.34375 1941.09375 C-56.07368022 1947.68857535 -62.00470697 1954.10767574 -67.9152832 1960.5402832 C-70.77544568 1963.65561264 -73.61484644 1966.78817406 -76.4375 1969.9375 C-81.89636994 1976.01581617 -87.44318573 1982.01135119 -93 1988 C-93.59071289 1988.63728027 -94.18142578 1989.27456055 -94.79003906 1989.93115234 C-96.62915528 1991.91402566 -98.47047478 1993.89482906 -100.3125 1995.875 C-101.15590942 1996.78415161 -101.15590942 1996.78415161 -102.01635742 1997.71166992 C-104.78441706 2000.6817242 -107.58742116 2003.59659971 -110.48046875 2006.4453125 C-112.89379877 2008.83696091 -115.16182396 2011.29726707 -117.375 2013.875 C-122.06357255 2019.30662757 -127.21502119 2024.26174902 -132.328125 2029.2890625 C-133.08609375 2030.03929688 -133.8440625 2030.78953125 -134.625 2031.5625 C-135.29789063 2032.22378906 -135.97078125 2032.88507813 -136.6640625 2033.56640625 C-138.52832804 2035.50860931 -140.27585127 2037.47564439 -142.02368164 2039.51928711 C-147.06998143 2045.32359563 -152.55513459 2050.6991925 -157.99609375 2056.12890625 C-159.15534273 2057.28883055 -160.31444337 2058.44890312 -161.47340393 2059.6091156 C-163.89153822 2062.0287161 -166.3114508 2064.44651971 -168.73266602 2066.86303711 C-171.81676472 2069.94143922 -174.89635094 2073.02431023 -177.97460842 2076.10855198 C-180.36387033 2078.50144869 -182.75553514 2080.89193238 -185.14790535 2083.28172112 C-186.28359161 2084.41674617 -187.41855186 2085.55249819 -188.55273247 2086.68902779 C-194.01558948 2092.16071733 -199.48806518 2097.56159676 -205.36830139 2102.59068298 C-207.4913776 2104.42440853 -209.47165997 2106.37467154 -211.4375 2108.375 C-212.18773438 2109.13296875 -212.93796875 2109.8909375 -213.7109375 2110.671875 C-214.46632812 2111.44015625 -215.22171875 2112.2084375 -216 2113 C-220.93697518 2118.0212239 -225.91219575 2122.88586476 -231.25390625 2127.4765625 C-233.44244189 2129.38602312 -235.47811803 2131.41590627 -237.5 2133.5 C-240.90370276 2136.95048906 -244.42438989 2140.16637394 -248.1015625 2143.3203125 C-249.97970753 2144.98204576 -251.74305516 2146.71125525 -253.5 2148.5 C-255.75797943 2150.79326036 -258.05996504 2152.96428028 -260.5 2155.0625 C-264.60510448 2158.59834195 -268.54996797 2162.29333717 -272.5 2166 C-276.95331013 2170.17565744 -281.41962161 2174.31341338 -286.046875 2178.296875 C-288.56612276 2180.49365905 -291.03102996 2182.74689619 -293.5 2185 C-297.29009082 2188.45643771 -301.11056033 2191.86843854 -304.984375 2195.23046875 C-307.28607764 2197.25114956 -309.54764379 2199.31312618 -311.8125 2201.375 C-315.27530082 2204.50422827 -318.80679003 2207.50500349 -322.4375 2210.4375 C-326.24087503 2213.51336588 -329.90082652 2216.68753166 -333.5 2220 C-337.87036819 2224.01851651 -342.37474475 2227.79787076 -346.9921875 2231.52734375 C-350.50702115 2234.41681089 -353.94391539 2237.38702991 -357.375 2240.375 C-366.98926097 2248.73696798 -376.63232566 2256.99083426 -386.69946289 2264.80517578 C-390.90441755 2268.08842484 -394.97156349 2271.50317534 -399 2275 C-404.09057815 2279.4153769 -409.28570993 2283.64953981 -414.60717773 2287.78295898 C-419.14592634 2291.31211524 -423.61187946 2294.92301355 -428.0625 2298.5625 C-433.82022102 2303.26189706 -439.64074175 2307.8523338 -445.55078125 2312.359375 C-448.82064114 2314.85416409 -452.06068779 2317.38610187 -455.30053711 2319.91967773 C-463.23866812 2326.12367198 -471.24851661 2332.22163445 -479.32202148 2338.24829102 C-484.56153582 2342.16189568 -489.77236253 2346.1101744 -494.96411133 2350.08691406 C-503.72342254 2356.79603691 -512.56664074 2363.35892839 -521.53515625 2369.78515625 C-526.24563234 2373.164343 -530.90407664 2376.61209566 -535.5625 2380.0625 C-543.6053612 2386.0095016 -551.74112169 2391.81124599 -559.93359375 2397.54980469 C-562.64943573 2399.4557713 -565.35667532 2401.3737624 -568.06420898 2403.29150391 C-586.09410595 2416.05191197 -604.25498546 2428.58824856 -622.66894531 2440.78857422 C-626.31262977 2443.20754914 -629.95002183 2445.63577826 -633.5859375 2448.06640625 C-646.6625645 2456.80652526 -659.73988426 2465.53950246 -673 2474 C-673.83370117 2474.53254395 -674.66740234 2475.06508789 -675.52636719 2475.61376953 C-681.11739967 2479.18330501 -686.71462164 2482.74298161 -692.31591797 2486.29638672 C-694.81750455 2487.88416834 -697.31711916 2489.47500865 -699.81640625 2491.06640625 C-711.06560871 2498.21605204 -722.42714679 2505.17114887 -733.828125 2512.07568359 C-737.17021093 2514.10326374 -740.50741606 2516.13875952 -743.84375 2518.17578125 C-757.800662 2526.69177078 -771.82591616 2535.07468598 -785.98291016 2543.25537109 C-789.09941962 2545.05748929 -792.21198137 2546.86629665 -795.32421875 2548.67578125 C-809.63572111 2556.98223045 -824.04792982 2565.09257935 -838.53613281 2573.08642578 C-841.44470567 2574.69323393 -844.35064122 2576.30465804 -847.25489807 2577.91925049 C-873.42285848 2592.46546028 -899.87069948 2606.466052 -926.49310303 2620.16108704 C-930.96662566 2622.46368872 -935.43161674 2624.78238519 -939.89453125 2627.10546875 C-953.08907992 2633.96729152 -966.31970035 2640.69915797 -979.7734375 2647.04296875 C-984.54838066 2649.29793447 -989.29734026 2651.6021028 -994.0390625 2653.92578125 C-1011.84072238 2662.64430382 -1029.73762022 2671.08062515 -1047.81729126 2679.20648193 C-1052.60039411 2681.3594895 -1057.36637511 2683.5473821 -1062.125 2685.75390625 C-1115.52420244 2710.48318327 -1170.03423841 2732.9963478 -1225 2754 C-1225.80447571 2754.30748169 -1226.60895142 2754.61496338 -1227.43780518 2754.9317627 C-1239.92914977 2759.70065292 -1252.45245284 2764.38110442 -1265 2769 C-1265.91811462 2769.33797607 -1266.83622925 2769.67595215 -1267.78216553 2770.02416992 C-1363.1699527 2805.09076775 -1460.20614255 2835.52045162 -2174.87561035 2951.8581543 C-2176.95345908 2951.95248757 -2179.03118172 2952.04964184 -2181.10876465 2952.1496582 C-2199.77481708 2953.04300862 -2218.27484329 2953 -2237 2953 C-2237 2716.72 -2237 2480.44 -2237 2237 C-2225.12 2236.34 -2213.24 2235.68 -2201 2235 C-2083.1786112 2228.29995082 -1966.32039325 2214.9999628 -1337.46044922 2022.625 C-1334.48786247 2021.22909642 -1331.5097519 2019.84604122 -1328.52781677 2018.47024536 C-1309.60137954 2009.73421792 -1290.9016138 2000.55651466 -1272.25 1991.25 C-1270.54012909 1990.39894684 -1270.54012909 1990.39894684 -1268.79571533 1989.53070068 C-1255.28163422 1982.79789113 -1241.91206779 1975.86653152 -1228.68994141 1968.57666016 C-1223.36379111 1965.64015634 -1217.97627039 1962.83345661 -1212.5625 1960.0625 C-1201.839406 1954.51591334 -1191.33583828 1948.6211855 -1180.85742188 1942.62792969 C-1178.04174251 1941.02378153 -1175.21802586 1939.43494644 -1172.390625 1937.8515625 C-1158.50513064 1930.06951593 -1144.78634321 1922.02380125 -1131.12109375 1913.86328125 C-1128.31211586 1912.186332 -1125.50031052 1910.51425884 -1122.6875 1908.84375 C-1109.66778275 1901.0934281 -1096.82342578 1893.06995226 -1084 1885 C-1083.12891602 1884.45279297 -1082.25783203 1883.90558594 -1081.36035156 1883.34179688 C-1078.92670151 1881.81283183 -1076.4942777 1880.28194091 -1074.0625 1878.75 C-1073.3914624 1878.32783203 -1072.7204248 1877.90566406 -1072.02905273 1877.47070312 C-1058.63408126 1869.01038634 -1045.39167081 1860.3168273 -1032.21557617 1851.52050781 C-1029.93588192 1849.99892001 -1027.65454451 1848.47981958 -1025.37304688 1846.9609375 C-1012.18362042 1838.17017025 -999.10896567 1829.21656522 -986.125 1820.125 C-984.87420654 1819.24920288 -984.87420654 1819.24920288 -983.59814453 1818.35571289 C-975.74570882 1812.84386423 -967.96714709 1807.23310406 -960.20458984 1801.59570312 C-958.01285343 1800.00930343 -955.81430192 1798.43286229 -953.61328125 1796.859375 C-943.61912734 1789.70426835 -933.80765024 1782.33441014 -924.05078125 1774.859375 C-919.57940975 1771.43507008 -915.07757479 1768.05384751 -910.5625 1764.6875 C-903.85962244 1759.68045046 -897.26680689 1754.54513436 -890.70898438 1749.35009766 C-889.00308513 1748.00243725 -887.2916741 1746.66213522 -885.578125 1745.32421875 C-878.6421722 1739.90544417 -871.78000164 1734.40491922 -864.96362305 1728.83642578 C-860.66558271 1725.331782 -856.31961872 1721.89858066 -851.9375 1718.5 C-846.25790759 1714.08298916 -840.80913765 1709.43634012 -835.39648438 1704.69750977 C-831.79351361 1701.54491035 -828.15687801 1698.4533593 -824.4375 1695.4375 C-818.47961428 1690.6060683 -812.66480357 1685.6165039 -806.85888672 1680.60449219 C-804.96089714 1678.96624849 -803.06052614 1677.330794 -801.16015625 1675.6953125 C-794.49545596 1669.9494448 -787.9033846 1664.14297837 -781.4140625 1658.19921875 C-778.65043564 1655.68154574 -775.84033532 1653.22265414 -773.01953125 1650.76953125 C-769.83715774 1647.98110726 -766.69950574 1645.14354171 -763.55859375 1642.30859375 C-761.90747667 1640.8188072 -760.25399856 1639.33163123 -758.59765625 1637.84765625 C-751.66627396 1631.63525041 -744.82292675 1625.33093339 -738 1619 C-737.36271973 1618.40928711 -736.72543945 1617.81857422 -736.06884766 1617.20996094 C-734.08597434 1615.37084472 -732.10517094 1613.52952522 -730.125 1611.6875 C-729.51889893 1611.12522705 -728.91279785 1610.5629541 -728.28833008 1609.98364258 C-725.3182758 1607.21558294 -722.40340029 1604.41257884 -719.5546875 1601.51953125 C-717.19495007 1599.13835622 -714.76899942 1596.89847341 -712.223526 1594.71763611 C-708.28335295 1591.28856407 -704.55511165 1587.69683067 -700.86889648 1583.99829102 C-700.20597595 1583.3371228 -699.54305542 1582.67595459 -698.86004639 1581.99475098 C-696.69456009 1579.83362435 -694.53270362 1577.66890962 -692.37109375 1575.50390625 C-690.8524458 1573.98593303 -689.33364952 1572.46810819 -687.81471252 1570.95042419 C-684.64185625 1567.77903692 -681.470802 1564.60586177 -678.30102539 1561.43139648 C-674.25407862 1557.37875294 -670.2026584 1553.330616 -666.14987087 1549.28381443 C-663.01580812 1546.15337883 -659.88414783 1543.02054852 -656.75319099 1539.88700676 C-655.26090788 1538.39406034 -653.76789203 1536.90184594 -652.27410698 1535.4104023 C-650.18086711 1533.31972448 -648.09089737 1531.22582895 -646.00170898 1529.13110352 C-645.39424332 1528.52566208 -644.78677765 1527.92022064 -644.16090393 1527.2964325 C-640.46210704 1523.57961059 -636.95943341 1519.73860995 -633.54144382 1515.76174831 C-630.74281728 1512.56313964 -627.66783761 1509.65026293 -624.625 1506.6875 C-621.92699678 1503.92525861 -619.4108158 1501.05322472 -616.8828125 1498.13671875 C-613.0301767 1493.76453663 -608.9758192 1489.57801675 -604.9609375 1485.35546875 C-601.0836783 1481.26114292 -597.3063982 1477.1044804 -593.61230469 1472.84423828 C-591.33616342 1470.24066906 -588.98212657 1467.71804879 -586.625 1465.1875 C-583.13232509 1461.41258873 -579.78489993 1457.57441715 -576.5625 1453.5625 C-573.19651492 1449.37759905 -569.66800278 1445.41710021 -566 1441.5 C-561.59703796 1436.79326664 -557.44204139 1431.96338061 -553.40234375 1426.9375 C-550.54248729 1423.44056982 -547.59221025 1420.0308526 -544.625 1416.625 C-536.66008979 1407.47335762 -528.75189216 1398.28728009 -521.21484375 1388.77734375 C-518.95222268 1385.94008876 -516.66373939 1383.12542162 -514.37011719 1380.31323242 C-508.27420398 1372.83839747 -502.26601626 1365.30211312 -496.32958984 1357.70019531 C-494.56906782 1355.44895121 -492.8007559 1353.20388826 -491.0324707 1350.95874023 C-489.18679118 1348.61386621 -487.34503774 1346.26592646 -485.50390625 1343.91748047 C-484.46302976 1342.59036295 -483.42130672 1341.26390911 -482.37890625 1339.93798828 C-475.21108182 1330.81473831 -468.17741596 1321.61098151 -461.32324219 1312.24951172 C-457.07276476 1306.44447249 -452.76695015 1300.68382073 -448.4375 1294.9375 C-437.23567296 1280.03915641 -426.44250191 1264.86686429 -415.79492188 1249.56884766 C-414.06608475 1247.09457885 -412.32410576 1244.63015997 -410.578125 1242.16796875 C-385.76420966 1207.0304866 -362.44982627 1170.68630146 -340 1134 C-339.34386719 1132.92878906 -338.68773438 1131.85757813 -338.01171875 1130.75390625 C-328.13686594 1114.6203541 -318.44474121 1098.39000644 -309 1082 C-308.35675781 1080.88625 -307.71351562 1079.7725 -307.05078125 1078.625 C-298.30745231 1063.47921606 -289.79006563 1048.22982261 -281.52050781 1032.81884766 C-280.04525967 1030.08390625 -278.55389237 1027.35859071 -277.0546875 1024.63671875 C-269.77262759 1011.41284791 -262.79217526 998.0437066 -255.89399719 984.61708069 C-253.67970644 980.31049934 -251.44639708 976.01420255 -249.203125 971.72265625 C-240.78894817 955.60961514 -232.71567546 939.35507649 -224.91864014 922.9329834 C-223.97785161 920.95339581 -223.03438494 918.97510302 -222.09033203 916.99707031 C-180.92416445 830.6926458 -145.42238489 741.63762071 -89 566 C-88.73483582 565.07922668 -88.46967163 564.15845337 -88.19647217 563.20977783 C-72.79483062 509.6730926 -59.50829845 455.50207817 -48 401 C-47.78126221 399.96476196 -47.56252441 398.92952393 -47.3371582 397.86291504 C-26.62415242 299.53206652 -12.67175848 199.52153557 -3.8125 75.3125 C-3.73350464 74.11481995 -3.65450928 72.91713989 -3.57312012 71.6831665 C-2.0165624 47.80068773 -1.06294773 23.91632384 0 0 Z " fill="#7E48FE" transform="translate(6313,4076)"/>
<path d="M0 0 C20.82404907 0 41.43650225 0.13418608 62.20635223 1.15045547 C64.30620524 1.25273771 66.40616507 1.35252495 68.50616455 1.45175171 C148.80946987 5.25813974 228.88577053 12.07354516 688 95 C689.10780823 95.28361389 690.21561646 95.56722778 691.35699463 95.85943604 C743.69182841 109.26462435 795.5706432 124.4658979 847 141 C848.63358459 141.5249707 848.63358459 141.5249707 850.3001709 142.06054688 C928.6675356 167.27202552 1006.01837756 195.28728136 1082 227 C1083.6152247 227.67303755 1085.23045917 228.34605165 1086.84570312 229.01904297 C1108.66438793 238.11710025 1130.39643334 247.40198784 1152 257 C1152.76098999 257.33795593 1153.52197998 257.67591187 1154.30603027 258.02410889 C1186.46211952 272.31396925 1218.29647378 287.2360543 1249.95703125 302.58984375 C1254.82309604 304.94962283 1259.69594136 307.29453734 1264.57421875 309.62890625 C1275.87053968 315.03964544 1287.13550282 320.4766259 1298.1809082 326.38818359 C1304.00257152 329.50045358 1309.89427698 332.45111601 1315.8125 335.375 C1324.21529427 339.53814912 1332.47050166 343.92184573 1340.68115234 348.45092773 C1347.2157459 352.04929515 1353.80820474 355.51721518 1360.4375 358.9375 C1369.22190598 363.48138903 1377.85824707 368.24428895 1386.44726562 373.14648438 C1392.90070684 376.82727104 1399.40008751 380.40832973 1405.9375 383.9375 C1415.79796212 389.27474942 1425.47886743 394.8934874 1435.14453125 400.57421875 C1439.64977907 403.21954924 1444.17997121 405.81562419 1448.72802734 408.38647461 C1459.12751676 414.26676674 1469.35101664 420.41493427 1479.5456543 426.640625 C1486.84651575 431.0974367 1494.1825596 435.48755457 1501.5625 439.8125 C1510.73209666 445.19768689 1519.73939255 450.80836528 1528.69970703 456.53369141 C1531.72926559 458.46486618 1534.76963934 460.37861168 1537.81030273 462.29223633 C1541.87819234 464.8541358 1545.93885292 467.42743127 1550 470 C1550.90363281 470.57137695 1551.80726562 471.14275391 1552.73828125 471.73144531 C1569.47629476 482.32722609 1585.98057272 493.25166573 1602.43795776 504.27638245 C1606.86452232 507.24170235 1611.29835471 510.19582286 1615.73730469 513.14257812 C1637.29308029 527.46057617 1658.64214557 542.13762529 1679.57666016 557.34985352 C1684.49867467 560.92532096 1689.45698396 564.44410121 1694.4375 567.9375 C1708.24952151 577.65102729 1721.74984266 587.7701672 1735.15649414 598.03369141 C1740.95296061 602.46385939 1746.79935752 606.81762391 1752.6875 611.125 C1761.93744119 617.89969963 1770.98707473 624.91429981 1780 632 C1781.24859874 632.97929313 1782.49729183 633.95846597 1783.74609375 634.9375 C1786.04870763 636.74377618 1788.34935289 638.55251543 1790.6484375 640.36328125 C1792.8999582 642.13627175 1795.15536764 643.90412755 1797.4140625 645.66796875 C1805.1180535 651.68997981 1812.72987632 657.81727859 1820.30859375 663.99609375 C1823.29643058 666.43116179 1826.29847033 668.84737413 1829.3125 671.25 C1833.6449403 674.7058094 1837.93830928 678.20744871 1842.22265625 681.72265625 C1844.04021344 683.21300202 1845.86042748 684.70011494 1847.68359375 686.18359375 C1853.23170068 690.70099286 1858.7172197 695.28419379 1864.16796875 699.91796875 C1867.5381234 702.7782182 1870.9400841 705.59241234 1874.375 708.375 C1880.08158671 713.02143707 1885.6266132 717.84390026 1891.17578125 722.67578125 C1894.76768166 725.80292224 1898.38042213 728.90497634 1902 732 C1912.57960564 741.0601066 1923.13142091 750.12492426 1933.36328125 759.578125 C1936.20678793 762.18993854 1939.09978145 764.73534754 1942.015625 767.265625 C1946.05376124 770.79501966 1950.0185482 774.40698252 1954 778 C1954.804375 778.721875 1955.60875 779.44375 1956.4375 780.1875 C1962.49153305 785.62060659 1968.49555047 791.10672329 1974.48535156 796.61035156 C1975.94374405 797.94838671 1977.40540193 799.28286008 1978.8671875 800.6171875 C1986.60288003 807.68203406 1994.25265108 814.83564472 2001.88378906 822.01318359 C2004.00973339 824.00913825 2006.14099837 825.99926883 2008.2734375 827.98828125 C2015.93298783 835.14590882 2023.49162339 842.37532277 2030.82836914 849.86523438 C2033.61287679 852.69156341 2036.4298947 855.3985935 2039.45849609 857.96289062 C2045.27990162 863.03353394 2050.67875846 868.53465823 2056.12890625 873.99609375 C2057.28883055 875.15534273 2058.44890312 876.31444337 2059.6091156 877.47340393 C2062.0287161 879.89153822 2064.44651971 882.3114508 2066.86303711 884.73266602 C2069.94143922 887.81676472 2073.02431023 890.89635094 2076.10855198 893.97460842 C2078.50144869 896.36387033 2080.89193238 898.75553514 2083.28172112 901.14790535 C2084.41674617 902.28359161 2085.55249819 903.41855186 2086.68902779 904.55273247 C2092.16071733 910.01558948 2097.56159676 915.48806518 2102.59068298 921.36830139 C2104.42440853 923.4913776 2106.37467154 925.47165997 2108.375 927.4375 C2109.13296875 928.18773437 2109.8909375 928.93796875 2110.671875 929.7109375 C2111.44015625 930.46632813 2112.2084375 931.22171875 2113 932 C2118.01098458 936.92690766 2122.86406709 941.89194442 2127.4453125 947.22265625 C2129.52197158 949.5967263 2131.74080004 951.80025267 2134 954 C2137.57151386 957.47752665 2140.86412812 961.10921324 2144.12597656 964.87207031 C2147.28459026 968.45863584 2150.58433008 971.90998995 2153.875 975.375 C2159.67341876 981.50821119 2165.39311125 987.6908786 2171 994 C2175.8426901 999.40518042 2180.71252548 1004.78328014 2185.625 1010.125 C2190.78499491 1015.74352422 2195.82300277 1021.44979592 2200.77734375 1027.25 C2201.80984183 1028.45837948 2202.84239546 1029.6667115 2203.875 1030.875 C2204.39481445 1031.4836792 2204.91462891 1032.0923584 2205.45019531 1032.71948242 C2208.47918656 1036.25662058 2211.55164023 1039.74409531 2214.6875 1043.1875 C2218.53851005 1047.42708043 2222.14843955 1051.82932112 2225.75 1056.28125 C2227.93501569 1058.92147729 2230.19171391 1061.4672972 2232.5 1064 C2236.34191939 1068.22013944 2239.96115221 1072.58027184 2243.55078125 1077.015625 C2246.31811006 1080.38761736 2249.1515737 1083.69656069 2252 1087 C2257.09988944 1092.92097646 2262.07749067 1098.93041051 2267 1105 C2268.4159632 1106.72974276 2269.8326473 1108.45889561 2271.25 1110.1875 C2284.99754242 1126.9953649 2298.63233221 1143.88798548 2312 1161 C2312.53882812 1161.68964844 2313.07765625 1162.37929687 2313.6328125 1163.08984375 C2321.56504527 1173.24962134 2329.43698427 1183.45361338 2337.24902344 1193.70605469 C2339.13316925 1196.17446435 2341.02334658 1198.63818226 2342.9140625 1201.1015625 C2350.35566585 1210.81122781 2357.66255057 1220.59603868 2364.7890625 1230.5390625 C2368.15035263 1235.22418382 2371.57191227 1239.86363637 2375 1244.5 C2385.35718898 1258.52720532 2395.52803716 1272.67395503 2405.49609375 1286.98046875 C2407.72542355 1290.17987321 2409.9664414 1293.37028394 2412.22265625 1296.55078125 C2421.92671006 1310.2583602 2431.21449233 1324.23580581 2440.50074768 1338.22773743 C2444.11241739 1343.66838966 2447.73538376 1349.10140753 2451.36328125 1354.53125 C2452.42986489 1356.12824544 2453.49643399 1357.72525058 2454.56298828 1359.32226562 C2456.09825216 1361.62103742 2457.63376401 1363.91964042 2459.17034912 1366.2175293 C2468.19957466 1379.72269325 2477.09885211 1393.31138084 2485.75 1407.0625 C2486.23766846 1407.8366626 2486.72533691 1408.6108252 2487.2277832 1409.40844727 C2488.81993948 1411.93807634 2490.40996368 1414.46903798 2492 1417 C2492.56702637 1417.90073242 2493.13405273 1418.80146484 2493.71826172 1419.72949219 C2509.2544792 1444.41846619 2524.3161499 1469.36595445 2538.99951172 1494.56933594 C2540.90253333 1497.8328531 2542.81143777 1501.09284053 2544.72265625 1504.3515625 C2552.61837913 1517.82512687 2560.37128059 1531.37352877 2568 1545 C2568.59425781 1546.06089844 2569.18851563 1547.12179687 2569.80078125 1548.21484375 C2578.43272883 1563.64331427 2586.90773237 1579.15018705 2595.24951172 1594.73730469 C2596.98247185 1597.96732968 2598.72615832 1601.1913405 2600.47265625 1604.4140625 C2622.41679655 1644.99383267 2643.39055912 1686.24059522 2663 1728 C2663.49677246 1729.05268066 2663.99354492 1730.10536133 2664.50537109 1731.18994141 C2682.42020524 1769.16807776 2699.40415938 1807.52755933 2715.80340576 1846.1829834 C2716.93522777 1848.84751352 2718.07046682 1851.51054999 2719.20751953 1854.17285156 C2758.20382654 1945.47989714 2792.11719862 2039.27517954 2951.6875 2878.3125 C2951.77877167 2880.16881042 2951.77877167 2880.16881042 2951.87188721 2882.06262207 C2952.52272325 2895.44875456 2953.09604516 2908.83731674 2953.58203125 2922.23046875 C2953.64604378 2923.92554314 2953.64604378 2923.92554314 2953.71134949 2925.65486145 C2954.02768779 2934.78649378 2954 2943.84550367 2954 2953 C2717.39 2953 2480.78 2953 2237 2953 C2236.01 2932.21 2235.02 2911.42 2234 2890 C2227.71314955 2790.92790845 2216.11090077 2692.50677333 2197.5645752 2594.96936035 C2197.18823708 2592.99002532 2196.81315525 2591.01045101 2196.43933105 2589.03063965 C2179.97801108 2501.85615651 2158.0180854 2415.49788748 2131 2331 C2130.68671753 2330.01739197 2130.37343506 2329.03478394 2130.05065918 2328.0223999 C2100.87658916 2236.56411833 2066.121041 2147.19911417 2006.6506958 2019.47233582 C2004.58380494 2015.21408856 2002.53590743 2010.94705606 2000.49609375 2006.67578125 C1990.2445079 1985.23246795 1979.43320315 1964.11420177 1967.97387695 1943.2890625 C1965.57408304 1938.92123506 1963.23499432 1934.5493132 1961.0625 1930.0625 C1957.78232337 1923.36865117 1954.05216121 1916.93128099 1950.36474609 1910.45629883 C1946.7104661 1904.0375698 1943.10961131 1897.59263706 1939.54663086 1891.12280273 C1931.95486993 1877.34996265 1924.05888781 1863.78154307 1915.97314453 1850.29345703 C1914.03738666 1847.06240362 1912.10962245 1843.82670405 1910.18359375 1840.58984375 C1901.64878737 1826.27128394 1892.91499505 1812.08485437 1884 1798 C1883.51772949 1797.23716705 1883.03545898 1796.47433411 1882.53857422 1795.68838501 C1873.70326469 1781.72257795 1864.72689684 1767.85591713 1855.625 1754.0625 C1854.99447723 1753.10609619 1854.36395447 1752.14969238 1853.71432495 1751.16430664 C1844.88983007 1737.78624579 1835.9798656 1724.49034924 1826.70898438 1711.41650391 C1824.92474155 1708.89358456 1823.15587483 1706.36045902 1821.390625 1703.82421875 C1813.71276457 1692.79556456 1805.92050372 1681.85567999 1798 1671 C1797.44876465 1670.24396484 1796.8975293 1669.48792969 1796.32958984 1668.70898438 C1788.23560812 1657.62440831 1779.97788928 1646.67202891 1771.640625 1635.76953125 C1768.71743682 1631.94580283 1765.81829143 1628.10575315 1762.9375 1624.25 C1759.34979261 1619.45287713 1755.69787918 1614.71254115 1752 1610 C1751.20078125 1608.97519531 1750.4015625 1607.95039063 1749.578125 1606.89453125 C1744.07813487 1599.85381407 1738.49250269 1592.88952258 1732.84179688 1585.96923828 C1729.29977797 1581.62364747 1725.81901555 1577.23601189 1722.375 1572.8125 C1717.92850427 1567.10973627 1713.30858865 1561.57678652 1708.61328125 1556.078125 C1706.22117731 1553.2729268 1703.88544149 1550.42536843 1701.5625 1547.5625 C1696.66427761 1541.54866823 1691.61086754 1535.67366596 1686.54833984 1529.79833984 C1684.52629448 1527.44980844 1682.50952656 1525.09678386 1680.4934082 1522.74316406 C1679.49633258 1521.57933866 1678.49877239 1520.41592822 1677.50073242 1519.25292969 C1674.99277199 1516.33003583 1672.490791 1513.40238795 1670 1510.46484375 C1664.04288718 1503.45271452 1657.93864808 1496.61572693 1651.66796875 1489.8828125 C1649.57161369 1487.61764407 1647.51735322 1485.33485433 1645.5 1483 C1641.93912519 1478.88328131 1638.23640447 1474.90253926 1634.53637695 1470.91137695 C1631.5573413 1467.69538833 1628.60584471 1464.45891476 1625.6875 1461.1875 C1621.64088512 1456.67482161 1617.51656928 1452.23784253 1613.375 1447.8125 C1612.75326904 1447.14694092 1612.13153809 1446.48138184 1611.4909668 1445.7956543 C1608.536004 1442.64648697 1605.55378999 1439.5417495 1602.4765625 1436.51171875 C1600.11060332 1434.16733778 1597.8872637 1431.75513573 1595.72032166 1429.22621155 C1592.29026583 1425.28523239 1588.69771866 1421.55599669 1584.99829102 1417.86889648 C1584.3371228 1417.20597595 1583.67595459 1416.54305542 1582.99475098 1415.86004639 C1580.83362435 1413.69456009 1578.66890962 1411.53270362 1576.50390625 1409.37109375 C1574.98593303 1407.8524458 1573.46810819 1406.33364952 1571.95042419 1404.81471252 C1568.77903692 1401.64185625 1565.60586177 1398.470802 1562.43139648 1395.30102539 C1558.37875294 1391.25407862 1554.330616 1387.2026584 1550.28381443 1383.14987087 C1547.15337883 1380.01580812 1544.02054852 1376.88414783 1540.88700676 1373.75319099 C1539.39406034 1372.26090788 1537.90184594 1370.76789203 1536.4104023 1369.27410698 C1534.31972448 1367.18086711 1532.22582895 1365.09089737 1530.13110352 1363.00170898 C1529.52566208 1362.39424332 1528.92022064 1361.78677765 1528.2964325 1361.16090393 C1524.57961059 1357.46210704 1520.73860995 1353.95943341 1516.76174831 1350.54144382 C1513.56313964 1347.74281728 1510.65026293 1344.66783761 1507.6875 1341.625 C1504.92235899 1338.92416459 1502.04741804 1336.40479416 1499.12792969 1333.87402344 C1495.54136416 1330.71540974 1492.09001005 1327.41566992 1488.625 1324.125 C1482.49169301 1318.32649067 1476.30675759 1312.60963758 1470 1307 C1468.29102989 1305.45903924 1466.58270637 1303.91736112 1464.875 1302.375 C1459.55317482 1297.58865258 1454.18487465 1292.8633524 1448.7421875 1288.21484375 C1447.53643324 1287.18492521 1446.33070477 1286.15497647 1445.125 1285.125 C1444.51648193 1284.60534668 1443.90796387 1284.08569336 1443.28100586 1283.55029297 C1439.74376142 1280.52107467 1436.25607423 1277.44851417 1432.8125 1274.3125 C1428.65277791 1270.53831313 1424.34965851 1266.98213888 1419.984375 1263.44921875 C1416.61238264 1260.68188994 1413.30343931 1257.8484263 1410 1255 C1404.07902354 1249.90011056 1398.06958949 1244.92250933 1392 1240 C1390.27025724 1238.5840368 1388.54110439 1237.1673527 1386.8125 1235.75 C1384.8751893 1234.16643505 1382.93766862 1232.58312697 1381 1231 C1380.09241943 1230.2567749 1380.09241943 1230.2567749 1379.16650391 1229.49853516 C1371.26859778 1223.03339147 1363.32557697 1216.65210687 1355.2109375 1210.4609375 C1351.78049567 1207.84113546 1348.38935736 1205.17261989 1345 1202.5 C1339.02721562 1197.79642209 1333.02208947 1193.13677651 1326.98339844 1188.51806641 C1325.524836 1187.40170239 1324.06730345 1186.28399245 1322.61035156 1185.16552734 C1309.05963121 1174.75542117 1309.05963121 1174.75542117 1295.2331543 1164.71777344 C1290.39180029 1161.30201176 1285.63342723 1157.78008792 1280.875 1154.25 C1271.86341617 1147.5803227 1262.70613964 1141.13642102 1253.49853516 1134.74121094 C1251.03813083 1133.0265731 1248.58611387 1131.30063273 1246.13671875 1129.5703125 C1234.16648911 1121.12313772 1222.0252143 1112.95444752 1209.81103516 1104.86474609 C1206.46189799 1102.64304124 1203.12163636 1100.40828454 1199.78198242 1098.17236328 C1177.51333668 1083.27434288 1154.83022942 1069.01902337 1132 1055 C1130.39608398 1054.01507568 1130.39608398 1054.01507568 1128.75976562 1053.01025391 C1112.96871231 1043.33018403 1097.06269898 1033.88520231 1080.9765625 1024.70068359 C1078.20006225 1023.11430722 1075.42744747 1021.52139776 1072.65625 1019.92578125 C1048.04264995 1005.77167022 1023.13830829 992.19438204 998 979 C997.397323 978.68351501 996.794646 978.36703003 996.17370605 978.04095459 C966.06177171 962.23835911 935.71421125 946.82981697 904.76611328 932.72705078 C900.52882767 930.7900019 896.30990266 928.81406612 892.08984375 926.83984375 C868.27308467 915.71502308 844.24783023 905.15025452 820 895 C819.113125 894.62875 818.22625 894.2575 817.3125 893.875 C774.37746262 875.92827901 730.95292734 859.28484925 687 844 C686.03640564 843.66462219 685.07281128 843.32924438 684.08001709 842.98370361 C580.31186088 806.90632998 474.06540724 777.875174 25.33862305 717.59472656 C24.51834625 717.56052109 23.69806946 717.52631561 22.85293579 717.49107361 C21.3719803 717.43020808 19.89092883 717.3715963 18.40975952 717.31617737 C12.24081602 717.06616002 6.17450294 716.51454191 0 716 C0 479.72 0 243.44 0 0 Z " fill="#FEC32D" transform="translate(4076,971)"/>
<path d="M0 0 C2.328125 1.1171875 2.328125 1.1171875 5.25 2.875 C6.8896875 3.85919922 6.8896875 3.85919922 8.5625 4.86328125 C11.82749727 6.87540935 15.03905759 8.96515649 18.25 11.0625 C65.95050475 42.03353537 118.25977324 65.71006391 172 84 C173.09602539 84.37576172 174.19205078 84.75152344 175.32128906 85.13867188 C242.46638682 107.98899414 315.00433446 121.11850679 386 122 C387.0333548 122.01483429 387.0333548 122.01483429 388.08758545 122.02996826 C468.9586552 123.17286071 548.7041803 112.90928618 776.87768555 22.08825684 C778.03859689 21.40674657 779.20119022 20.72809307 780.36547852 20.05236816 C786.33793811 16.58493695 792.0724802 13.06412223 797.4921875 8.7734375 C808.90514909 -0.13373232 808.90514909 -0.13373232 814.22607422 0.09619141 C819.41770168 1.45926635 823.74499811 4.35567223 828.20263672 7.25830078 C833.00448136 10.24803369 838.08931947 12.70269015 843.13754272 15.24380493 C846.2801785 16.83615818 849.40117392 18.46972542 852.5234375 20.1015625 C853.7821636 20.75825872 855.04095237 21.41483483 856.29980469 22.07128906 C857.22400208 22.55329773 857.22400208 22.55329773 858.16687012 23.04504395 C862.20247538 25.14736398 866.24377859 27.23870479 870.28417969 29.33178711 C873.62495356 31.06247594 876.96492607 32.79470209 880.3046875 34.52734375 C884.83012189 36.87487143 889.35620159 39.22114801 893.8828125 41.56640625 C904.38748855 47.00957575 914.88875447 52.45889663 925.375 57.9375 C935.83854224 63.40358417 946.3231599 68.82859768 956.8104248 74.2489624 C957.42212524 74.56512512 958.03382568 74.88128784 958.6640625 75.20703125 C959.27608521 75.5233551 959.88810791 75.83967896 960.51867676 76.16558838 C970.23668356 81.18914035 979.94635223 86.2287926 989.65722656 91.26611328 C995.27115609 94.17804196 1000.88560561 97.08896774 1006.5 100 C1008.75000246 101.16666192 1011.00000246 102.33332858 1013.25 103.5 C1014.920625 104.36625 1014.920625 104.36625 1016.625 105.25 C1021.6875 107.875 1021.6875 107.875 1026.75 110.5 C1027.86407227 111.07766113 1028.97814453 111.65532227 1030.12597656 112.25048828 C1032.37274107 113.41548933 1034.61948591 114.5805283 1036.86621094 115.74560547 C1042.54055217 118.68806975 1048.21524895 121.6298446 1053.890625 124.5703125 C1064.39263836 130.01229201 1074.89133505 135.46024487 1085.375 140.9375 C1095.83854224 146.40358417 1106.3231599 151.82859768 1116.8104248 157.2489624 C1117.42212524 157.56512512 1118.03382568 157.88128784 1118.6640625 158.20703125 C1119.27608521 158.5233551 1119.88810791 158.83967896 1120.51867676 159.16558838 C1130.23668356 164.18914035 1139.94635223 169.2287926 1149.65722656 174.26611328 C1154.14510757 176.59396392 1158.6333294 178.92115699 1163.12158203 181.24829102 C1165.36998396 182.41408693 1167.61835646 183.5799396 1169.86669922 184.74584961 C1175.54087269 187.68824216 1181.2154105 190.6299283 1186.890625 193.5703125 C1197.39263836 199.01229201 1207.89133505 204.46024487 1218.375 209.9375 C1228.83854224 215.40358417 1239.3231599 220.82859768 1249.8104248 226.2489624 C1250.42212524 226.56512512 1251.03382568 226.88128784 1251.6640625 227.20703125 C1252.27608521 227.5233551 1252.88810791 227.83967896 1253.51867676 228.16558838 C1263.23668356 233.18914035 1272.94635223 238.2287926 1282.65722656 243.26611328 C1287.14494606 245.59388014 1291.63300755 247.92098715 1296.12109375 250.24804688 C1299.49483104 251.99731991 1302.86850931 253.74670674 1306.2421875 255.49609375 C1311.90413209 258.43194722 1317.56645775 261.36706479 1323.22900391 264.30175781 C1325.48422166 265.4710339 1327.73910728 266.64095083 1329.99365234 267.81152344 C1335.5419398 270.69200732 1341.0942318 273.5640769 1346.65625 276.41796875 C1383.63677142 295.43383531 1416.13707773 318.1955466 1445.72470093 347.54946899 C1447.14559002 348.95844151 1448.57041788 350.36343847 1449.99536133 351.76831055 C1456.10192347 357.86724153 1461.65259041 364.22971005 1467 371 C1467.90866821 372.12776855 1467.90866821 372.12776855 1468.83569336 373.27832031 C1477.27338738 383.76162485 1484.97919067 394.52056563 1492 406 C1492.6494458 407.05767578 1492.6494458 407.05767578 1493.31201172 408.13671875 C1499.06164033 417.55572989 1504.30987188 427.15009404 1509.08398438 437.09863281 C1509.95341835 438.9033108 1510.84333996 440.6980764 1511.734375 442.4921875 C1515.37730371 449.99528378 1518.52388904 457.64632879 1521.5 465.4375 C1521.84345459 466.32244141 1522.18690918 467.20738281 1522.54077148 468.11914062 C1529.52510185 486.78720472 1534.21111332 506.28332573 1538.78125 525.65234375 C1539.31250499 527.88352612 1539.84429469 530.11458123 1540.37657166 532.34552002 C1541.79611167 538.30191151 1543.20820618 544.26004422 1544.61878586 550.21856308 C1546.11784322 556.54494788 1547.62394291 562.86965631 1549.12915039 569.19458008 C1552.18809106 582.0536321 1555.23890142 594.91459563 1558.28741455 607.77612305 C1559.87478623 614.4728634 1561.46404777 621.1691536 1563.05419922 627.86523438 C1567.96573413 648.54822569 1572.87053356 669.23280139 1577.76900673 689.91889 C1582.39501857 709.45368257 1587.02975137 728.98640033 1591.66682434 748.51856995 C1594.65128675 761.08984873 1597.63469868 773.66137428 1600.61499023 786.23364258 C1601.7862293 791.1740066 1602.95754511 796.11435242 1604.12890625 801.0546875 C1604.41677191 802.26886793 1604.70463757 803.48304836 1605.00122643 804.73402214 C1608.63336324 820.05182688 1612.27847585 835.36645644 1615.93955994 850.67736816 C1617.74152965 858.21392617 1619.53822107 865.75173924 1621.33340168 873.28991699 C1622.51745581 878.26029874 1623.7043571 883.22995855 1624.89871216 888.19787598 C1636.89363403 938.1065125 1636.89363403 938.1065125 1638.25 961.6875 C1638.32734375 962.80576172 1638.4046875 963.92402344 1638.484375 965.07617188 C1643.09437025 1036.16065217 1619.42296697 1107.32238965 1574 1162 C1573.53948242 1162.56203125 1573.07896484 1163.1240625 1572.60449219 1163.703125 C1561.61184018 1177.08417364 1549.62737972 1189.29277307 1536 1200 C1535.21367187 1200.67675781 1534.42734375 1201.35351562 1533.6171875 1202.05078125 C1519.26179033 1214.35862177 1502.78031369 1224.36718926 1486 1233 C1484.80286377 1233.6180249 1484.80286377 1233.6180249 1483.58154297 1234.24853516 C1397.70797323 1278.05196491 1288.8662422 1290.44533494 1075 1325 C1074.31287178 1325.09390266 1073.62574356 1325.18780533 1072.91779327 1325.28455353 C990.23646681 1336.57763543 907.1087266 1344.68905814 582.3125 1363.125 C581.01414215 1363.16370209 579.7157843 1363.20240417 578.37808228 1363.24227905 C569.41481977 1363.50525723 560.45107322 1363.73255378 551.48641968 1363.94129562 C548.87989458 1364.00283569 546.27344601 1364.06713787 543.66699219 1364.13162231 C499.71959623 1365.20293253 455.77088913 1365.20114998 411.81322718 1365.18822432 C408.853465 1365.18749469 405.89370314 1365.18724802 402.93394089 1365.1871376 C345.57251514 1365.18387749 288.23797423 1365.06247968 230.90203857 1363.16143799 C226.68724263 1363.02172911 222.47226618 1362.88856812 218.25720215 1362.75722313 C132.42710796 1360.08120022 46.66684623 1355.55991964 -571 1267 C-572.5283548 1266.62007904 -572.5283548 1266.62007904 -574.08758545 1266.23248291 C-638.31331292 1250.23476815 -638.31331292 1250.23476815 -665 1237 C-666.30662598 1236.36288086 -666.30662598 1236.36288086 -667.63964844 1235.71289062 C-690.67346104 1224.40726713 -711.87381325 1210.4343168 -730.7734375 1193.04296875 C-732.81427926 1191.17040692 -734.89463697 1189.36170466 -737 1187.5625 C-744.60889379 1180.90280423 -751.44354924 1173.72211091 -757.73828125 1165.8125 C-759.21995871 1163.96999953 -760.73753121 1162.15567125 -762.29296875 1160.375 C-809.29510157 1106.39538906 -830.03329342 1031.27952203 -825.3125 960.75 C-823.00125922 932.27352811 -816.07120702 904.75611671 -809.31389618 877.0832901 C-808.02336114 871.78768969 -806.74451418 866.48927016 -805.46533203 861.19091797 C-804.93878589 859.01034446 -804.41223558 856.82977195 -803.88568115 854.64920044 C-803.49229679 853.01995321 -803.49229679 853.01995321 -803.09096527 851.3577919 C-802.29057416 848.04477569 -801.48897807 844.73205308 -800.68707275 841.41940308 C-795.73057801 820.93701841 -790.87123314 800.4322515 -786.03456497 779.92129517 C-783.99947134 771.29330139 -781.96046031 762.6662318 -779.921875 754.0390625 C-779.68958254 753.05586784 -779.45729008 752.07267319 -779.21795845 751.05968475 C-771.48995366 718.35333453 -763.70851622 685.65963645 -755.92871094 652.96557617 C-754.70239889 647.81170406 -753.47617532 642.6578109 -752.25 637.50390625 C-751.94752602 636.23262312 -751.64505203 634.96133999 -751.33341217 633.65153313 C-747.17667894 616.17901174 -743.03501651 598.70298838 -738.90636063 581.2238121 C-737.26120576 574.26102898 -735.61346624 567.29885697 -733.96573448 560.33668327 C-732.68294628 554.91521744 -731.40204874 549.49332025 -730.12579346 544.0703125 C-716.86624091 487.73788803 -716.86624091 487.73788803 -709.8125 468.5625 C-709.44286133 467.5513916 -709.07322266 466.5402832 -708.69238281 465.49853516 C-698.32433396 437.80638825 -684.28773955 411.95456823 -667 388 C-666.4961377 387.29794434 -665.99227539 386.59588867 -665.47314453 385.87255859 C-656.19905903 373.01921328 -646.1624066 360.832518 -634.78125 349.78125 C-632.86596163 347.9367041 -632.86596163 347.9367041 -630.9375 345.375 C-628.67632147 342.60323277 -626.15688904 340.44338626 -623.4375 338.12890625 C-621.12034042 336.10510501 -618.88914426 334.00760083 -616.66088867 331.88696289 C-608.59631645 324.25844666 -599.93820113 317.56855712 -591 311 C-590.30358398 310.48405273 -589.60716797 309.96810547 -588.88964844 309.43652344 C-571.85519026 296.87011986 -553.48966163 287.07465955 -534.70605469 277.39941406 C-530.83208153 275.39602051 -526.97904826 273.35386837 -523.125 271.3125 C-513.6443378 266.30512263 -504.10663818 261.4088852 -494.57226562 256.50488281 C-484.82957634 251.49348154 -475.09964261 246.45924171 -465.390625 241.3828125 C-454.75427353 235.8222128 -444.09620736 230.30359527 -433.43945312 224.78222656 C-427.7923305 221.8560486 -422.1462104 218.92793765 -416.5 216 C-414.25000493 214.83332383 -412.00000493 213.66665717 -409.75 212.5 C-408.079375 211.63375 -408.079375 211.63375 -406.375 210.75 C-342.25 177.5 -342.25 177.5 -338.87402344 175.74951172 C-336.62725893 174.58451067 -334.38051409 173.4194717 -332.13378906 172.25439453 C-326.45944783 169.31193025 -320.78475105 166.3701554 -315.109375 163.4296875 C-304.60736164 157.98770799 -294.10866495 152.53975513 -283.625 147.0625 C-273.16145776 141.59641583 -262.6768401 136.17140232 -252.1895752 130.7510376 C-251.57787476 130.43487488 -250.96617432 130.11871216 -250.3359375 129.79296875 C-249.72391479 129.4766449 -249.11189209 129.16032104 -248.48132324 128.83441162 C-242.1097908 125.54076047 -235.74205598 122.23979557 -229.375 118.9375 C-228.26930664 118.36402832 -227.16361328 117.79055664 -226.02441406 117.19970703 C-223.79718063 116.04447194 -221.56996704 114.88919859 -219.34277344 113.73388672 C-213.72884391 110.82195804 -208.11439439 107.91103226 -202.5 105 C-200.24999754 103.83333808 -197.99999754 102.66667142 -195.75 101.5 C-182.25000001 94.50000001 -182.25000001 94.50000001 -178.87402344 92.74951172 C-176.62725893 91.58451067 -174.38051409 90.4194717 -172.13378906 89.25439453 C-166.45944783 86.31193025 -160.78475105 83.3701554 -155.109375 80.4296875 C-144.60736164 74.98770799 -134.10866495 69.53975513 -123.625 64.0625 C-113.16145776 58.59641583 -102.6768401 53.17140232 -92.1895752 47.7510376 C-91.57787476 47.43487488 -90.96617432 47.11871216 -90.3359375 46.79296875 C-89.72391479 46.4766449 -89.11189209 46.16032104 -88.48132324 45.83441162 C-82.1097908 42.54076047 -75.74205598 39.23979557 -69.375 35.9375 C-68.26930664 35.36402832 -67.16361328 34.79055664 -66.02441406 34.19970703 C-63.79718063 33.04447194 -61.56996704 31.88919859 -59.34277344 30.73388672 C-52.62208479 27.24788535 -45.90069717 23.76323185 -39.17944336 20.27832031 C-33.88482186 17.53304723 -28.59029581 14.78759056 -23.29611206 12.04147339 C-20.78240711 10.73761771 -18.26864719 9.43386805 -15.75488281 8.13012695 C-13.97064929 7.20469363 -12.18649576 6.27910609 -10.40234375 5.35351562 C-9.32984375 4.79728516 -8.25734375 4.24105469 -7.15234375 3.66796875 C-6.20351318 3.17578857 -5.25468262 2.6836084 -4.27709961 2.17651367 C-2.85590532 1.44222234 -1.43079753 0.71539877 0 0 Z " fill="#000000" transform="translate(3594,4085)"/>
<path d="M0 0 C1.2199707 1.39501953 1.2199707 1.39501953 2.42578125 3.3828125 C3.11305298 4.4955957 3.11305298 4.4955957 3.81420898 5.63085938 C4.55586304 6.86545898 4.55586304 6.86545898 5.3125 8.125 C6.41364278 9.90911328 7.5152205 11.69295818 8.6171875 13.4765625 C9.46748535 14.86536621 9.46748535 14.86536621 10.33496094 16.28222656 C20.02548385 32.09966073 30.31109568 47.50264583 40.6875 62.875 C41.31042938 63.79788818 41.93335876 64.72077637 42.57516479 65.67163086 C57.06768286 87.13164448 57.06768286 87.13164448 71.875 108.375 C72.36564941 109.06867676 72.85629883 109.76235352 73.36181641 110.47705078 C96.11002201 142.57481923 119.76611785 174.01144165 144 205 C144.75603516 205.96873047 144.75603516 205.96873047 145.52734375 206.95703125 C151.58721856 214.72074355 157.73556788 222.39960475 164 230 C165.50071175 231.83275076 167.00070638 233.66608895 168.5 235.5 C169.24507812 236.41007812 169.99015625 237.32015625 170.7578125 238.2578125 C172.2340486 240.06324411 173.70806736 241.87049141 175.1796875 243.6796875 C179.69616411 249.22482782 184.27620605 254.70930535 188.90917969 260.15698242 C191.85934093 263.63204115 194.75649915 267.14435174 197.625 270.6875 C201.20166313 275.08514096 204.94324823 279.29268157 208.76171875 283.48046875 C211.02847158 286.03204917 213.17540087 288.65171532 215.3125 291.3125 C219.72138108 296.76376101 224.4352398 301.87713498 229.21484375 307 C231.97596347 309.96144168 234.65054651 312.98985638 237.30078125 316.05078125 C240.0594437 319.21531588 242.87860078 322.32502649 245.69140625 325.44140625 C247.1811928 327.09252333 248.66836877 328.74600144 250.15234375 330.40234375 C255.34197428 336.19258252 260.59634325 341.91973152 265.87890625 347.625 C267.97622452 349.89023544 270.06691692 352.16131319 272.15234375 354.4375 C277.02705709 359.7520371 281.92990564 364.99208921 287.07787228 370.04541874 C288.89794686 371.89622377 290.59453068 373.80125588 292.28138733 375.77330017 C295.76651258 379.78091002 299.42488445 383.56643541 303.18530273 387.31469727 C303.86597809 387.99712494 304.54665344 388.67955261 305.24795532 389.38265991 C307.47401201 391.61307819 309.7036597 393.83986501 311.93359375 396.06640625 C313.49640749 397.62989467 315.05907285 399.19353142 316.62159729 400.75730896 C319.88714125 404.02432219 323.15447399 407.28953292 326.4230957 410.5534668 C330.59680741 414.72148171 334.76601305 418.89397049 338.93388271 423.06782627 C342.15696491 426.29453492 345.38244106 429.51884208 348.60862923 432.74244499 C350.14623313 434.27938539 351.68310447 435.81705907 353.21920586 437.35550117 C355.37215004 439.51100622 357.52831067 441.66324386 359.68530273 443.81469727 C360.62151711 444.75394798 360.62151711 444.75394798 361.5766449 445.71217346 C365.3380732 449.45587352 369.21908456 453.00656571 373.24470615 456.46501064 C376.44171219 459.2607649 379.35191157 462.33439566 382.3125 465.375 C385.07474139 468.07300322 387.94677528 470.5891842 390.86328125 473.1171875 C395.23546337 476.9698233 399.42198325 481.0241808 403.64453125 485.0390625 C407.73885708 488.9163217 411.8955196 492.6936018 416.15576172 496.38769531 C418.75933094 498.66383658 421.28195121 501.01787343 423.8125 503.375 C427.58741127 506.86767491 431.42558285 510.21510007 435.4375 513.4375 C439.62240095 516.80348508 443.58289979 520.33199722 447.5 524 C452.20406457 528.40046549 457.03020441 532.55414377 462.0546875 536.58984375 C465.59918058 539.4903109 469.04965356 542.48872571 472.5 545.5 C477.60285667 549.94590207 482.75291758 554.3126421 488.01171875 558.57421875 C491.02298045 561.01865472 494.0170668 563.48280384 497.00830078 565.95166016 C500.66855307 568.97220893 504.33419901 571.98618967 508 575 C508.67756348 575.55768066 509.35512695 576.11536133 510.05322266 576.68994141 C518.15910686 583.35337053 526.36077568 589.8587835 534.72143555 596.19995117 C539.31189471 599.68748398 543.83115047 603.24868468 548.3125 606.875 C556.51355889 613.49293614 564.95842958 619.77603783 573.41064453 626.06787109 C575.97590449 627.98202038 578.5340719 629.90523618 581.08984375 631.83203125 C591.23250762 639.47607662 601.45344238 646.99575549 611.7734375 654.3984375 C614.04138216 656.02976611 616.30279539 657.66977958 618.5625 659.3125 C626.91638555 665.38156215 635.32443391 671.35199989 643.85571289 677.16918945 C646.44302299 678.93431184 649.0262122 680.70505393 651.60327148 682.48510742 C661.98160768 689.65275418 672.44126224 696.6938665 682.9375 703.6875 C683.7869519 704.25382141 684.63640381 704.82014282 685.51159668 705.40362549 C698.71542118 714.20174026 711.98212686 722.88270851 725.39794922 731.35498047 C727.8544976 732.90801321 730.30511804 734.46992493 732.75390625 736.03515625 C784.89482269 769.28644926 838.86103474 799.84896973 893.75024414 828.3034668 C896.21735862 829.59142251 898.6794481 830.88735096 901.13842773 832.19067383 C913.48885224 838.73205445 925.9347808 845.06754714 938.4375 851.3125 C939.44634247 851.81678528 940.45518494 852.32107056 941.49459839 852.84063721 C956.36445348 860.26639516 971.28838071 867.50153317 986.42529297 874.36865234 C990.44020611 876.20089176 994.44120331 878.06171818 998.44140625 879.92578125 C1064.79456679 910.79431566 1132.89944548 937.93470336 1202 962 C1202.91271667 962.31841858 1203.82543335 962.63683716 1204.76580811 962.96490479 C1312.02090264 1000.35789384 1421.93263201 1029.75195513 1863.34277344 1088.40527344 C1864.19023636 1088.43947891 1865.03769928 1088.47368439 1865.9108429 1088.50892639 C1867.44897135 1088.5700604 1868.98720374 1088.62867542 1870.52555847 1088.68382263 C1876.39387807 1088.91369366 1882.12402281 1089.46582026 1888 1090 C1888 1326.28 1888 1562.56 1888 1806 C1850.63236686 1806 1850.63236686 1806 1832.82470703 1805.13745117 C1830.86866547 1805.04347549 1830.86866547 1805.04347549 1828.87310791 1804.94760132 C1828.20954536 1804.91524258 1827.54598282 1804.88288383 1826.86231232 1804.84954453 C1824.7578778 1804.7473474 1822.65334077 1804.64753599 1820.54876709 1804.54824829 C1740.22692845 1800.74644282 1660.13234822 1793.92872647 1201 1711 C1199.89219177 1710.71638611 1198.78438354 1710.43277222 1197.64300537 1710.14056396 C1145.30817159 1696.73537565 1093.4293568 1681.5341021 1042 1665 C1040.9109436 1664.65001953 1039.82188721 1664.30003906 1038.6998291 1663.93945312 C936.06753325 1630.92173019 835.18463965 1592.8258005 708 1536 C707.3510376 1535.7023877 706.7020752 1535.40477539 706.03344727 1535.09814453 C698.54336283 1531.66111934 691.07006098 1528.18917794 683.60839844 1524.69091797 C681.03973608 1523.4872268 678.47020388 1522.28555358 675.89941406 1521.08642578 C660.65166129 1513.97343861 645.4391426 1506.81998466 630.4230957 1499.22631836 C623.8066759 1495.88366276 617.13913179 1492.66791048 610.4375 1489.5 C600.97491553 1485.01149197 591.68173626 1480.25070276 582.41796875 1475.3671875 C577.62336467 1472.84194278 572.81097931 1470.35378285 567.98828125 1467.8828125 C567.29176956 1467.52587814 566.59525787 1467.16894379 565.87763977 1466.80119324 C565.17414902 1466.44068375 564.47065826 1466.08017426 563.74584961 1465.70874023 C551.20016158 1459.27909515 538.72024244 1452.76217076 526.375 1445.953125 C521.40264773 1443.21090983 516.40058642 1440.52630612 511.39428711 1437.84667969 C489.32922686 1426.030789 467.65128873 1413.55422044 446 1401 C445.0198291 1400.43200684 444.0396582 1399.86401367 443.02978516 1399.27880859 C396.57997009 1372.33964524 396.57997009 1372.33964524 376.09472656 1359.32421875 C372.56612436 1357.09354994 369.01982089 1354.89127229 365.47680664 1352.68359375 C356.48169387 1347.07625072 347.50621169 1341.43899563 338.5625 1335.75 C337.74894043 1335.23276367 336.93538086 1334.71552734 336.09716797 1334.18261719 C321.26589861 1324.72933333 306.54291668 1315.10957522 291.85253906 1305.43920898 C289.95166801 1304.18861024 288.04997519 1302.93925966 286.14746094 1301.69116211 C274.52436041 1294.06587312 263.03801851 1286.2965138 251.72216797 1278.22238159 C248.0188028 1275.59376145 244.25903812 1273.04797089 240.5 1270.5 C226.92753885 1261.25016504 213.5674424 1251.71582418 200.265625 1242.08203125 C197.09751664 1239.78917277 193.91855007 1237.51253207 190.73046875 1235.24755859 C182.22958874 1229.20785257 173.84452425 1223.01418954 165.45996094 1216.81445312 C163.0428548 1215.03160945 160.62013601 1213.25670415 158.1953125 1211.484375 C149.54714705 1205.1559736 141.00011503 1198.72373504 132.56494141 1192.11376953 C127.69482254 1188.30139466 122.77584756 1184.5649805 117.8125 1180.875 C111.30784487 1176.03158553 104.95655284 1171.02064337 98.64453125 1165.9296875 C95.14330782 1163.10675051 91.60683584 1160.33097881 88.0625 1157.5625 C82.30568402 1153.05932899 76.62892008 1148.46321117 70.96777344 1143.84057617 C66.62264788 1140.29899403 62.23550984 1136.81862467 57.8125 1133.375 C52.11119589 1128.92964235 46.5797052 1124.31079415 41.08203125 1119.6171875 C38.25316987 1117.20503476 35.38424878 1114.84580002 32.5 1112.5 C27.89751534 1108.75379155 23.36277589 1104.93477213 18.8425293 1101.09033203 C15.36756977 1098.14041096 11.85546927 1095.24335594 8.3125 1092.375 C3.91773359 1088.80067479 -0.28703483 1085.06142322 -4.47265625 1081.24609375 C-7.06962393 1078.93812402 -9.73404013 1076.74444137 -12.4375 1074.5625 C-17.2186086 1070.69592131 -21.74784109 1066.61376554 -26.26953125 1062.44921875 C-28.84459883 1060.13939418 -31.48254363 1057.96756987 -34.1875 1055.8125 C-39.77383253 1051.30972335 -44.9706212 1046.43633217 -50.16674805 1041.49145508 C-54.07556937 1037.77558904 -58.05371751 1034.16888982 -62.12719727 1030.63427734 C-64.75305318 1028.34285778 -67.31329025 1025.98801758 -69.875 1023.625 C-73.5429268 1020.24842625 -77.22424041 1016.88933908 -80.9375 1013.5625 C-91.42368054 1004.1449748 -101.70934662 994.50469764 -111.99804688 984.87255859 C-114.06417138 982.93997628 -116.13368654 981.01106393 -118.203125 979.08203125 C-125.88693216 971.90225244 -133.46844036 964.64836039 -140.828125 957.13500977 C-143.59936894 954.3221496 -146.40103103 951.62746755 -149.41748047 949.078125 C-155.48524761 943.79262368 -161.10378473 938.04012981 -166.78515625 932.34765625 C-168.01234122 931.12114646 -169.23967447 929.89478502 -170.46714783 928.66856384 C-173.02798381 926.10919472 -175.58702171 923.54804507 -178.14477539 920.9855957 C-181.40477954 917.71989492 -184.66925365 914.45870525 -187.93509769 911.19884586 C-190.46696285 908.67061373 -192.99641744 906.13998061 -195.52517509 903.60864067 C-196.72718599 902.40596808 -197.92992519 901.20402291 -199.13344002 900.0028553 C-204.80137384 894.34355466 -210.42235686 888.69095554 -215.62718201 882.59519958 C-217.37874577 880.55990153 -219.24048026 878.66179619 -221.15625 876.78125 C-221.86910156 876.07613281 -222.58195312 875.37101562 -223.31640625 874.64453125 C-224.03699219 873.93683594 -224.75757813 873.22914062 -225.5 872.5 C-230.34021555 867.74637149 -235.00231883 862.93851914 -239.42773438 857.79492188 C-241.51149571 855.41606887 -243.73483744 853.20555302 -246 851 C-249.57151386 847.52247335 -252.86412812 843.89078676 -256.12597656 840.12792969 C-259.28458937 836.54136517 -262.58430982 833.08998941 -265.875 829.625 C-270.93584971 824.27254537 -275.95486429 818.89482727 -280.85546875 813.39453125 C-283.41999465 810.53104423 -286.02162069 807.70311885 -288.625 804.875 C-292.22739737 800.95693817 -295.78131074 797.00402212 -299.265625 792.98046875 C-301.27264538 790.68866845 -303.32402851 788.44003248 -305.375 786.1875 C-308.46636801 782.76770672 -311.42459032 779.28041476 -314.3125 775.6875 C-317.72420484 771.46603625 -321.29297628 767.45905933 -325 763.5 C-329.49956712 758.6945133 -333.73103036 753.74839283 -337.85546875 748.61328125 C-339.99874956 746.00152377 -342.2238033 743.49634698 -344.5 741 C-348.34069657 736.78120377 -351.95910346 732.42281705 -355.546875 727.98828125 C-358.33452228 724.59250073 -361.19200545 721.2631877 -364.0625 717.9375 C-368.05818824 713.30061283 -371.95950313 708.61273408 -375.75390625 703.80859375 C-378.73047821 700.08658463 -381.77393636 696.4214455 -384.8125 692.75 C-389.58756306 686.97255996 -394.2846974 681.14579115 -398.89038086 675.23266602 C-402.32409665 670.83308082 -405.839207 666.50528765 -409.375 662.1875 C-414.44668805 655.98475934 -419.35125917 649.67170163 -424.19262695 643.28808594 C-427.74568047 638.61208543 -431.37243849 634.00594676 -435.0625 629.4375 C-439.57124597 623.84512586 -443.93321867 618.16078028 -448.22119141 612.39770508 C-451.73750879 607.67325484 -455.29828009 602.98531815 -458.88037109 598.31054688 C-465.6594588 589.46056292 -472.29216889 580.52634217 -478.78515625 571.46484375 C-482.164343 566.75436766 -485.61209566 562.09592336 -489.0625 557.4375 C-495.0063487 549.39890286 -500.80536719 541.26763001 -506.54101562 533.07958984 C-508.48424083 530.30977855 -510.43793543 527.54743565 -512.3918457 524.78515625 C-514.41245308 521.92736883 -516.42878044 519.0665744 -518.44482422 516.20556641 C-519.47933622 514.73841077 -520.51481418 513.27193576 -521.55126953 511.80615234 C-529.41167368 500.68578486 -537.11452518 489.46299129 -544.75 478.1875 C-545.18585419 477.54399597 -545.62170837 476.90049194 -546.07077026 476.23748779 C-555.189923 462.76679897 -564.22583952 449.2422034 -573.125 435.625 C-573.48172791 435.07918274 -573.83845581 434.53336548 -574.20599365 433.9710083 C-586.24010283 415.54958971 -598.08330282 397.00797654 -609.6875 378.3125 C-611.67914178 375.10500401 -613.69131009 371.91485165 -615.75 368.75 C-616.13929687 368.14381836 -616.52859375 367.53763672 -616.9296875 366.91308594 C-617.90327201 365.40029905 -618.88850735 363.89502628 -619.875 362.390625 C-621 360 -621 360 -620.86547852 358.03564453 C-619.63716097 355.14658623 -618.02463808 354.51088954 -615.27734375 353.0390625 C-614.27646729 352.49258057 -613.27559082 351.94609863 -612.24438477 351.38305664 C-611.15311279 350.80289795 -610.06184082 350.22273926 -608.9375 349.625 C-606.63174554 348.36784035 -604.32708345 347.10867542 -602.0234375 345.84765625 C-601.4346431 345.52721848 -600.84584869 345.2067807 -600.23921204 344.87663269 C-594.44611606 341.71873586 -588.74924113 338.40699828 -583.0625 335.0625 C-581.07181055 333.89549899 -579.08092317 332.72883555 -577.08984375 331.5625 C-576.0932373 330.97855469 -575.09663086 330.39460938 -574.06982422 329.79296875 C-568.7667275 326.69562962 -563.44605065 323.62886142 -558.125 320.5625 C-557.04484619 319.93996338 -555.96469238 319.31742676 -554.85180664 318.67602539 C-552.66203666 317.41423174 -550.47217645 316.15259466 -548.28222656 314.89111328 C-542.85340058 311.76319852 -537.42680719 308.63141552 -532 305.5 C-529.83334417 304.24998121 -527.6666775 302.99998122 -525.5 301.75 C-524.4275 301.13125 -523.355 300.5125 -522.25 299.875 C-512.5 294.25 -512.5 294.25 -509.24951172 292.37475586 C-507.08442929 291.12564482 -504.91939018 289.87645871 -502.75439453 288.62719727 C-497.31384294 285.48797691 -491.87252784 282.35009437 -486.4296875 279.21484375 C-475.97793801 273.19252671 -465.53700452 267.15330663 -455.125 261.0625 C-445.85500223 255.64078822 -436.54168248 250.29795085 -427.21154785 244.98077393 C-418.0871716 239.77954871 -408.99867226 234.51972122 -399.93310547 229.21655273 C-389.40915375 223.06233258 -378.84619863 216.97630004 -368.28222656 210.89111328 C-362.85340058 207.76319852 -357.42680719 204.63141552 -352 201.5 C-349.83334417 200.24998121 -347.6666775 198.99998122 -345.5 197.75 C-344.4275 197.13125 -343.355 196.5125 -342.25 195.875 C-176.5 100.25 -176.5 100.25 -173.24951172 98.37475586 C-171.08442929 97.12564482 -168.91939018 95.87645871 -166.75439453 94.62719727 C-161.31384294 91.48797691 -155.87252784 88.35009437 -150.4296875 85.21484375 C-139.97793801 79.19252671 -129.53700452 73.15330663 -119.125 67.0625 C-109.85500223 61.64078822 -100.54168248 56.29795085 -91.21154785 50.98077393 C-82.0871716 45.77954871 -72.99867226 40.51972122 -63.93310547 35.21655273 C-55.60788751 30.34811306 -47.26162329 25.51694348 -38.90161133 20.70849609 C-33.76678946 17.75453289 -28.63699606 14.79297418 -23.52600098 11.79798889 C-21.12002104 10.38862234 -18.71132344 8.98393744 -16.3024292 7.57955933 C-14.59430633 6.58109209 -12.89012859 5.57588551 -11.18603516 4.57055664 C-10.15655762 3.97106201 -9.12708008 3.37156738 -8.06640625 2.75390625 C-7.15834229 2.22095947 -6.25027832 1.6880127 -5.31469727 1.13891602 C-3 0 -3 0 0 0 Z " fill="#EF4343" transform="translate(2036,5223)"/>
<path d="M0 0 C1.14807129 0.12728485 1.14807129 0.12728485 2.31933594 0.25714111 C80.37869589 9.00874626 155.67582947 32.50619342 262 91 C262.85577637 91.53641113 263.71155273 92.07282227 264.59326172 92.62548828 C286.73620327 106.55433634 308.02955941 122.10193489 328 139 C328.52577637 139.44230957 329.05155273 139.88461914 329.59326172 140.34033203 C337.72552218 147.19013525 345.62703857 154.25034698 353.39550781 161.50878906 C354.99181292 162.99239095 356.59916038 164.46292133 358.2109375 165.9296875 C368.26247062 175.09096371 378.3120994 184.42800739 387.10546875 194.82421875 C389.23158662 197.26596649 391.43733616 199.6206377 393.65405273 201.97998047 C399.72539234 208.4449365 405.45880003 215.07120269 411 222 C411.98128222 223.19158109 412.96448045 224.38158596 413.94921875 225.5703125 C434.91929366 250.94921623 453.64530201 278.42793453 470 307 C470.41330566 307.71913574 470.82661133 308.43827148 471.25244141 309.17919922 C474.24538732 314.41182887 477.13769637 319.69500291 480 325 C480.72823975 326.33780518 480.72823975 326.33780518 481.47119141 327.70263672 C508.51597103 377.58750459 527.08858992 431.61371038 539 487 C539.24443848 488.1245459 539.48887695 489.2490918 539.74072266 490.40771484 C545.53967945 517.47640198 549.27538998 545.37026044 551 573 C551.08208364 574.23158718 551.16416727 575.46317436 551.24873829 576.73208237 C552.22612816 592.68175056 552.1502527 608.63937091 552.14538372 624.6113553 C552.14517712 628.85160419 552.15072287 633.09184655 552.15544128 637.33209229 C552.16369389 645.61524953 552.16649369 653.89839965 552.16705366 662.18156067 C552.16753152 668.92756764 552.16959962 675.67357231 552.17275429 682.41957855 C552.18154714 701.61812555 552.18617596 720.816667 552.18542381 740.01521602 C552.18538386 741.04692325 552.1853439 742.07863048 552.18530273 743.14160156 C552.18524141 744.69109022 552.18524141 744.69109022 552.18517885 746.27188167 C552.18477306 762.98437226 552.19432947 779.69684025 552.2084411 796.40932432 C552.22287388 813.64054269 552.22970747 830.87175009 552.22884732 848.10297465 C552.22851766 857.74831902 552.23116201 867.39363971 552.24202538 877.03897858 C552.25122194 885.25599165 552.25323191 893.47297033 552.24651595 901.68998638 C552.2432958 905.86616328 552.24302599 910.04227455 552.2518692 914.21844482 C552.30528014 941.13184743 551.40388032 967.93838278 548.1875 994.6875 C548.10318726 995.40148956 548.01887451 996.11547913 547.93200684 996.85110474 C543.58895649 1033.44745536 535.97793709 1069.81221822 525 1105 C524.80297485 1105.632547 524.60594971 1106.26509399 524.4029541 1106.91680908 C502.95061761 1175.58084317 469.81089905 1239.88585549 426 1297 C425.51241211 1297.63776367 425.02482422 1298.27552734 424.52246094 1298.93261719 C418.37863654 1306.93921907 411.97285897 1314.7041727 405.40039062 1322.36132812 C403.99203398 1324.00932146 402.59643142 1325.66739677 401.203125 1327.328125 C390.09427694 1340.51727459 378.16449626 1352.91053711 366 1365.125 C365.22325928 1365.90641357 364.44651855 1366.68782715 363.64624023 1367.49291992 C359.49874267 1371.62882607 355.2652744 1375.59683542 350.82666016 1379.41845703 C348.22014084 1381.67521086 345.710355 1384.02503996 343.1875 1386.375 C337.64340173 1391.49000206 331.89094098 1396.28724722 326 1401 C324.88094186 1401.91076019 323.76248112 1402.82225476 322.64453125 1403.734375 C295.90151885 1425.47288979 267.0822475 1445.17104242 237 1462 C236.07026367 1462.52319824 235.14052734 1463.04639648 234.18261719 1463.58544922 C188.1550201 1489.36492077 139.15616296 1509.08795392 88 1522 C86.80665039 1522.30244629 85.61330078 1522.60489258 84.38378906 1522.91650391 C53.28969245 1530.7004066 21.88335077 1535.86148879 -10 1539 C-11.74192627 1539.17789063 -11.74192627 1539.17789063 -13.51904297 1539.359375 C-50.16612336 1542.94667843 -88.37599958 1542.74015045 -125 1539 C-126.30952637 1538.87109375 -127.61905273 1538.7421875 -128.96826172 1538.609375 C-160.76059023 1535.4346584 -192.02675405 1529.84995715 -223 1522 C-224.17272461 1521.70399902 -225.34544922 1521.40799805 -226.55371094 1521.10302734 C-286.90819945 1505.65982051 -344.30265168 1480.09119547 -397 1447 C-397.85867676 1446.46213867 -398.71735352 1445.92427734 -399.60205078 1445.37011719 C-431.38929979 1425.37287893 -461.01193635 1402.05250961 -488.44726562 1376.43945312 C-490.90116233 1374.16458285 -493.39248714 1371.9310544 -495.875 1369.6875 C-505.02993581 1361.29851499 -514.12770309 1352.64048088 -522.140625 1343.140625 C-524.25233798 1340.70949326 -526.44702688 1338.36876131 -528.65185547 1336.0222168 C-534.72416052 1329.55673472 -540.45815378 1322.92960539 -546 1316 C-546.98128222 1314.80841891 -547.96448045 1313.61841404 -548.94921875 1312.4296875 C-571.11611336 1285.60431067 -591.05937772 1256.40347575 -608 1226 C-608.84135498 1224.49228027 -608.84135498 1224.49228027 -609.69970703 1222.95410156 C-648.93250473 1152.22485515 -673.49233745 1075.04111368 -683.25 994.8125 C-683.47671387 992.98525391 -683.47671387 992.98525391 -683.70800781 991.12109375 C-686.68453004 965.05132799 -687.30367736 938.93461821 -687.26144934 912.72756922 C-687.25682405 908.45687252 -687.26395713 904.18619037 -687.26940918 899.91549683 C-687.27819983 891.59821418 -687.27642811 883.28096808 -687.2705839 874.96368413 C-687.26602636 868.19125643 -687.26547195 861.4188388 -687.26763153 854.64640999 C-687.267938 853.67444284 -687.26824446 852.70247568 -687.26856022 851.70105498 C-687.26919981 849.72518674 -687.26984824 847.7493185 -687.2705054 845.77345026 C-687.27617834 827.34187785 -687.26969869 808.91032549 -687.25890467 790.47875638 C-687.24997052 774.73688551 -687.25152602 758.99504416 -687.26074219 743.25317383 C-687.27149645 724.8761082 -687.27563079 706.49906003 -687.26951766 688.12199169 C-687.26888071 686.15458588 -687.26825196 684.18718006 -687.26763153 682.21977425 C-687.26732298 681.25231678 -687.26701443 680.28485932 -687.26669653 679.28808497 C-687.26498508 672.5400843 -687.26785076 665.79209491 -687.27259064 659.04409599 C-687.27825717 650.79733143 -687.27656384 642.55060483 -687.26602915 634.3038445 C-687.26084897 630.11353412 -687.25858095 625.92328652 -687.26532745 621.73297691 C-687.30408261 595.48037658 -686.46539492 569.33632597 -683.25 543.25 C-683.12544937 542.22428894 -683.12544937 542.22428894 -682.99838257 541.17785645 C-673.25421082 461.47602086 -648.8307119 382.63500281 -605.51171875 307.56298828 C-604.03495593 305.05926475 -602.5789478 302.5443664 -601.125 300.02734375 C-583.69524315 270.1358753 -562.96393317 241.92711033 -540.43554688 215.67822266 C-538.92331776 213.91035481 -537.42196278 212.13364683 -535.921875 210.35546875 C-531.10608848 204.66435908 -526.28824778 199.09675985 -520.91552734 193.91650391 C-519.1211194 192.12118115 -517.47208985 190.272484 -515.828125 188.33984375 C-511.77067012 183.66954692 -507.44669965 179.29950118 -503.0625 174.9375 C-502.30259766 174.17373047 -501.54269531 173.40996094 -500.75976562 172.62304688 C-496.58553199 168.45594259 -492.32549058 164.45851052 -487.85571289 160.6105957 C-485.06447279 158.1880446 -482.38293334 155.65289892 -479.6875 153.125 C-473.98515128 147.82625534 -468.07285619 142.87101964 -462 138 C-460.80726658 137.0172335 -459.61594599 136.03275069 -458.42578125 135.046875 C-448.23499565 126.6309254 -437.73031073 118.71380002 -427 111 C-426.17419434 110.40509766 -425.34838867 109.81019531 -424.49755859 109.19726562 C-413.65125202 101.41233171 -402.63349524 94.07169126 -391.14404297 87.27050781 C-389.07042251 86.04173067 -387.00529105 84.79972939 -384.94140625 83.5546875 C-309.64795195 38.38407031 -224.44745707 9.33075168 -137.03955078 0.21289062 C-135.66398848 0.06930787 -134.2886648 -0.07657716 -132.91357422 -0.22460938 C-88.93054633 -4.94680645 -43.96454744 -4.91615209 0 0 Z " fill="#000000" transform="translate(4068,2553)"/>
<path d="M0 0 C0 3 0 3 -1.42118073 4.79032421 C-2.09224602 5.45862412 -2.76331131 6.12692404 -3.45471191 6.81547546 C-4.22039993 7.58528748 -4.98608795 8.35509949 -5.77497864 9.14823914 C-6.62589584 9.98837051 -7.47681305 10.82850189 -8.35351562 11.6940918 C-9.24109055 12.5821048 -10.12866547 13.4701178 -11.0431366 14.38504028 C-13.48060052 16.82336682 -15.92721999 19.2523175 -18.37554741 21.67972922 C-20.93136702 24.21682634 -23.47872338 26.76239146 -26.02697754 29.30708313 C-30.8552735 34.12604559 -35.69116758 38.93730824 -40.52981615 43.74587327 C-46.0374221 49.21997579 -51.53653692 54.70257423 -57.03494358 60.1859144 C-68.34718601 71.46677825 -79.67008131 82.73688773 -91 94 C-91.66 93.67 -92.32 93.34 -93 93 C-91.60587891 91.62328125 -91.60587891 91.62328125 -90.18359375 90.21875 C-88.93475877 88.97930475 -87.68606864 87.73971355 -86.4375 86.5 C-85.82841797 85.89929687 -85.21933594 85.29859375 -84.59179688 84.6796875 C-83.98271484 84.07382813 -83.37363281 83.46796875 -82.74609375 82.84375 C-81.92129517 82.02680664 -81.92129517 82.02680664 -81.07983398 81.19335938 C-79.33755688 79.35598204 -77.69972069 77.48330593 -76.05664062 75.55883789 C-70.77888109 69.49873161 -65.03244992 63.88855036 -59.34765625 58.21484375 C-58.12114646 56.98765878 -56.89478502 55.76032553 -55.66856384 54.53285217 C-53.10919472 51.97201619 -50.54804507 49.41297829 -47.9855957 46.85522461 C-44.71989492 43.59522046 -41.45870525 40.33074635 -38.19884586 37.06490231 C-35.67061373 34.53303715 -33.13998061 32.00358256 -30.60864067 29.47482491 C-29.40596808 28.27281401 -28.20402291 27.07007481 -27.0028553 25.86655998 C-21.32949008 20.18454012 -15.67491019 14.52384927 -9.54771423 9.32409668 C-7.42425285 7.50743822 -5.45764836 5.55510636 -3.5 3.5625 C-2.8296875 2.88316406 -2.159375 2.20382812 -1.46875 1.50390625 C-0.9840625 1.00761719 -0.499375 0.51132813 0 0 Z " fill="#59AFFC" transform="translate(1904,1811)"/>
<path d="M0 0 C0.33 0.99 0.66 1.98 1 3 C-3.95 8.28 -8.9 13.56 -14 19 C-14.66 18.67 -15.32 18.34 -16 18 C-15.58637207 17.56131592 -15.17274414 17.12263184 -14.74658203 16.6706543 C-12.87047194 14.67837396 -10.99770793 12.68297841 -9.125 10.6875 C-8.47402344 9.99720703 -7.82304687 9.30691406 -7.15234375 8.59570312 C-6.21455078 7.59506836 -6.21455078 7.59506836 -5.2578125 6.57421875 C-4.6817627 5.96151123 -4.10571289 5.34880371 -3.51220703 4.7175293 C-1.81445712 2.86632011 -1.81445712 2.86632011 0 0 Z " fill="#A783FE" transform="translate(5726,5541)"/>
<path d="M0 0 C0.66 0.33 1.32 0.66 2 1 C-3.28 6.28 -8.56 11.56 -14 17 C-14.66 16.34 -15.32 15.68 -16 15 C-15.32626343 14.37170288 -15.32626343 14.37170288 -14.63891602 13.73071289 C-12.61327169 11.84149326 -10.58788262 9.9520002 -8.5625 8.0625 C-7.85544922 7.40314453 -7.14839844 6.74378906 -6.41992188 6.06445312 C-5.74638672 5.43603516 -5.07285156 4.80761719 -4.37890625 4.16015625 C-3.7557251 3.57886963 -3.13254395 2.99758301 -2.49047852 2.39868164 C-1.65000401 1.609971 -0.81500364 0.81500364 0 0 Z " fill="#AC8AFE" transform="translate(5565,5704)"/>
<path d="M0 0 C0.99 0.66 1.98 1.32 3 2 C1.73742767 3.17560179 0.46462916 4.34022865 -0.8125 5.5 C-1.87404297 6.47453125 -1.87404297 6.47453125 -2.95703125 7.46875 C-5 9 -5 9 -8 9 C-5.36 6.03 -2.72 3.06 0 0 Z " fill="#58AEFC" transform="translate(1764,1954)"/>
<path d="M0 0 C0.33 0.99 0.66 1.98 1 3 C-1.31 5.31 -3.62 7.62 -6 10 C-6.66 9.67 -7.32 9.34 -8 9 C-5.36 6.03 -2.72 3.06 0 0 Z " fill="#66B5FD" transform="translate(1753,1966)"/>
</svg>
